<svg version="1.1" xmlns="http://www.w3.org/2000/svg" viewBox="0 0 3673.279407768967 2822.793398232937" width="3673.279407768967" height="2822.793398232937" filter="invert(93%) hue-rotate(180deg)">
  <!-- svg-source:excalidraw -->
  
  <defs>
    <style class="style-fonts">
      @font-face {
        font-family: "Virgil";
        src: url("https://excalidraw.com/Virgil.woff2");
      }
      @font-face {
        font-family: "Cascadia";
        src: url("https://excalidraw.com/Cascadia.woff2");
      }
      @font-face {
        font-family: "Assistant";
        src: url("https://excalidraw.com/Assistant-Regular.woff2");
      }
    </style>
    
  </defs>
  <rect x="0" y="0" width="3673.279407768967" height="2822.793398232937" fill="#ffffff"></rect><g stroke-linecap="round" transform="translate(1635.5862881226806 1502.9479551212776) rotate(0 119.5 36)"><path d="M18 0 C85.73 0.54, 152.72 0.4, 221 0 M18 0 C88.02 0.47, 159.05 0.21, 221 0 M221 0 C231.37 1.54, 239.56 7.1, 239 18 M221 0 C231.62 -0.73, 237.1 3.93, 239 18 M239 18 C239.67 31.07, 238.5 42.05, 239 54 M239 18 C239.35 30.37, 239.42 44.29, 239 54 M239 54 C240.37 67.97, 233.24 72.59, 221 72 M239 54 C240.15 66, 232.8 71.84, 221 72 M221 72 C169.51 72.64, 119.82 71.01, 18 72 M221 72 C179.63 72.6, 137.74 72.02, 18 72 M18 72 C7.37 70.53, -1.21 67.95, 0 54 M18 72 C5.59 71.35, -0.29 64.53, 0 54 M0 54 C0.12 42.73, 1.12 29.61, 0 18 M0 54 C-0.06 42, 0.15 27.83, 0 18 M0 18 C1.28 4.72, 5.93 0.82, 18 0 M0 18 C0.99 7, 3.92 -1.14, 18 0" stroke="#1e1e1e" stroke-width="2" fill="none"></path></g><g transform="translate(1670.7112881226806 1517.3479551212777) rotate(0 84.375 21.599999999999994)"><text x="84.375" y="0" font-family="Cascadia, Segoe UI Emoji" font-size="36px" fill="#1e1e1e" text-anchor="middle" style="white-space: pre;" direction="ltr" dominant-baseline="text-before-edge">FARMACIA</text></g><g stroke-linecap="round" transform="translate(1140.620903963892 1502.9278741492396) rotate(0 184.23793438430783 78.1075689177716)"><path d="M231.25 19.75 C256.31 29.67, 286.56 42.65, 322.23 59.25 M231.25 19.75 C254.9 29.46, 278.84 40.28, 322.23 59.25 M322.23 59.25 C368.49 80.36, 369.69 78.42, 322.23 98.75 M322.23 59.25 C368.05 80.26, 366.75 79.03, 322.23 98.75 M322.23 98.75 C288.53 114.47, 252.5 125.77, 231.25 136.47 M322.23 98.75 C294.68 109.77, 266.91 122.17, 231.25 136.47 M231.25 136.47 C185.23 156.06, 183.48 155.83, 138.75 136.47 M231.25 136.47 C186.27 155.09, 184.73 156.19, 138.75 136.47 M138.75 136.47 C107.01 123.37, 74.28 113.36, 46.25 98.75 M138.75 136.47 C104.2 121.33, 70.43 107.75, 46.25 98.75 M46.25 98.75 C2 80.91, 0.27 78.78, 46.25 59.25 M46.25 98.75 C-1.96 78.97, 0.99 77.85, 46.25 59.25 M46.25 59.25 C71.47 48.35, 96.09 36.72, 138.75 19.75 M46.25 59.25 C76.4 47.84, 104.42 35.05, 138.75 19.75 M138.75 19.75 C184.95 0.59, 184.54 -0.41, 231.25 19.75 M138.75 19.75 C185.05 1.97, 182.79 -1.87, 231.25 19.75" stroke="#1e1e1e" stroke-width="2" fill="none"></path></g><g transform="translate(1240.3648711560459 1559.3816586081255) rotate(0 84.375 21.599999999999994)"><text x="84.375" y="0" font-family="Cascadia, Segoe UI Emoji" font-size="36px" fill="#1e1e1e" text-anchor="middle" style="white-space: pre;" direction="ltr" dominant-baseline="text-before-edge">CONTROLE</text></g><g stroke-linecap="round" transform="translate(1841.722434809436 555.7892992432028) rotate(0 185.67729324668517 46.05948359607697)"><path d="M23.03 0 C105.55 2.4, 188.71 2.72, 348.32 0 M23.03 0 C115.11 -2.14, 207.7 -1.16, 348.32 0 M348.32 0 C365.39 0.38, 370.52 6.28, 371.35 23.03 M348.32 0 C364.77 -0.53, 372.98 6.69, 371.35 23.03 M371.35 23.03 C371.85 35.73, 371.94 49.83, 371.35 69.09 M371.35 23.03 C370.54 37.4, 371.61 50.32, 371.35 69.09 M371.35 69.09 C371.51 84.15, 364.88 90.55, 348.32 92.12 M371.35 69.09 C370.12 85.01, 365.41 90.66, 348.32 92.12 M348.32 92.12 C251.72 92.15, 156.54 93.1, 23.03 92.12 M348.32 92.12 C248.08 92.81, 147.03 93.01, 23.03 92.12 M23.03 92.12 C8.96 93.8, 1.78 82.78, 0 69.09 M23.03 92.12 C6.15 92.67, -1.57 84.67, 0 69.09 M0 69.09 C-1.97 58.07, -1.5 46.07, 0 23.03 M0 69.09 C0.53 53.87, 0.26 38.77, 0 23.03 M0 23.03 C1.52 8.54, 5.71 -0.88, 23.03 0 M0 23.03 C-0.48 5.41, 5.39 1.38, 23.03 0" stroke="#1e1e1e" stroke-width="2" fill="none"></path></g><g transform="translate(1911.3841030561211 580.2487828392798) rotate(0 116.015625 21.600000000000023)"><text x="116.015625" y="0" font-family="Cascadia, Segoe UI Emoji" font-size="36px" fill="#1e1e1e" text-anchor="middle" style="white-space: pre;" direction="ltr" dominant-baseline="text-before-edge">MEDICAMENTO</text></g><g stroke-linecap="round" transform="translate(1944.7838255518184 1570.2136934853738) rotate(0 135.29973306347597 53.25627790796395)"><path d="M179.81 3 C195.23 4.47, 212.32 9.12, 224.68 13.18 C237.03 17.24, 246.44 21.69, 253.95 27.38 C261.45 33.07, 267.49 40.82, 269.72 47.31 C271.94 53.79, 271.49 60.17, 267.29 66.27 C263.09 72.37, 254.09 78.63, 244.53 83.92 C234.97 89.2, 223.47 94.46, 209.93 97.99 C196.39 101.52, 179.41 103.7, 163.28 105.08 C147.15 106.46, 129.17 107.17, 113.14 106.25 C97.11 105.34, 81.13 103.04, 67.08 99.61 C53.04 96.18, 38.93 90.66, 28.88 85.69 C18.82 80.72, 11.43 75.89, 6.74 69.78 C2.05 63.68, -0.38 55.58, 0.74 49.07 C1.86 42.56, 6.59 36.41, 13.46 30.73 C20.33 25.05, 30.35 19.58, 41.97 14.99 C53.6 10.4, 68.11 5.55, 83.2 3.2 C98.28 0.85, 112.99 0.55, 132.48 0.92 C151.96 1.28, 186.47 3.68, 200.11 5.4 C213.75 7.12, 215.38 10.26, 214.32 11.22 M95.03 3.73 C108.88 1.2, 126.05 -0.28, 141.94 0.07 C157.82 0.41, 175.51 3.04, 190.34 5.8 C205.17 8.57, 219.43 12.02, 230.92 16.65 C242.4 21.28, 252.79 27.58, 259.25 33.57 C265.7 39.57, 269.14 46.32, 269.64 52.63 C270.15 58.93, 267.3 65.51, 262.28 71.41 C257.26 77.31, 249.84 83.5, 239.5 88.03 C229.17 92.57, 214.56 95.76, 200.3 98.64 C186.03 101.52, 170.33 104.34, 153.94 105.32 C137.54 106.3, 118.04 105.78, 101.92 104.52 C85.79 103.25, 70.37 101.37, 57.19 97.74 C44.01 94.11, 31.97 88.37, 22.84 82.72 C13.72 77.08, 5.75 69.97, 2.43 63.88 C-0.9 57.8, 0.24 52.26, 2.9 46.22 C5.56 40.18, 10.74 33.55, 18.38 27.63 C26.02 21.72, 36.31 14.65, 48.74 10.71 C61.18 6.77, 85.62 5.05, 93 4.01 C100.38 2.97, 92.29 3.77, 93.04 4.46" stroke="#1e1e1e" stroke-width="2" fill="none"></path></g><g transform="translate(2027.1778248733808 1601.7120961438611) rotate(0 52.734375 21.599999999999994)"><text x="52.734375" y="0" font-family="Cascadia, Segoe UI Emoji" font-size="36px" fill="#1e1e1e" text-anchor="middle" style="white-space: pre;" direction="ltr" dominant-baseline="text-before-edge">LOCAL</text></g><g stroke-linecap="round" transform="translate(512.1000525792815 1698.9277352944455) rotate(0 230.92688550402443 71.24340084698628)"><path d="M32 0 C171.92 -1.3, 309.45 -3.07, 429.85 0 M32 0 C154.2 -2, 275.65 -1.66, 429.85 0 M429.85 0 C452.79 1.24, 459.91 12.43, 461.85 32 M429.85 0 C453.08 -2.04, 464.13 10.93, 461.85 32 M461.85 32 C462.62 52.82, 459.86 73.51, 461.85 110.49 M461.85 32 C460.84 54.77, 461.82 78.26, 461.85 110.49 M461.85 110.49 C462.43 132.68, 449.73 142.32, 429.85 142.49 M461.85 110.49 C462.89 133.76, 453.32 141.58, 429.85 142.49 M429.85 142.49 C328.35 141.51, 227.96 140.94, 32 142.49 M429.85 142.49 C308.62 143.01, 186.7 143.56, 32 142.49 M32 142.49 C11.39 142.04, 1.42 132.69, 0 110.49 M32 142.49 C10.53 140.76, -0.92 133.06, 0 110.49 M0 110.49 C0.54 83.88, 0.24 57.07, 0 32 M0 110.49 C0.86 83.14, -0.44 57.22, 0 32 M0 32 C1.26 12.59, 9.03 0.56, 32 0 M0 32 C0.15 11.77, 11.71 -1.9, 32 0" stroke="#1e1e1e" stroke-width="2" fill="none"></path></g><g transform="translate(616.464438083306 1748.5711361414317) rotate(0 126.5625 21.599999999999994)"><text x="126.5625" y="0" font-family="Cascadia, Segoe UI Emoji" font-size="36px" fill="#1e1e1e" text-anchor="middle" style="white-space: pre;" direction="ltr" dominant-baseline="text-before-edge">FARMACEUTICO</text></g><g stroke-linecap="round" transform="translate(51.76337291030245 1585.1833539754684) rotate(0 152.31347767286718 42.99170740766414)"><path d="M109 1.13 C125.28 -0.68, 148.03 0.72, 166.36 1.15 C184.68 1.59, 202.54 1.68, 218.93 3.75 C235.33 5.81, 252.1 9.52, 264.73 13.55 C277.36 17.58, 288.17 22.98, 294.72 27.93 C301.28 32.87, 304.17 38.19, 304.06 43.24 C303.94 48.28, 300.59 53.36, 294.02 58.18 C287.45 63, 276.66 68.41, 264.63 72.16 C252.61 75.91, 238.06 78.43, 221.88 80.68 C205.7 82.93, 185.89 84.99, 167.57 85.66 C149.25 86.34, 129.69 86.11, 111.95 84.73 C94.2 83.35, 75.86 80.49, 61.1 77.37 C46.33 74.26, 33.08 70.25, 23.36 66.03 C13.64 61.81, 6.37 57.29, 2.8 52.04 C-0.78 46.79, -1.23 39.83, 1.92 34.53 C5.08 29.24, 12.2 24.61, 21.72 20.25 C31.25 15.89, 39.97 11.6, 59.07 8.36 C78.18 5.11, 118.94 1.95, 136.34 0.77 C153.74 -0.4, 163.32 0.64, 163.49 1.3 M155.59 -1.07 C173.08 -1.49, 195.8 0.75, 212.8 2.73 C229.81 4.7, 244.54 7.24, 257.62 10.78 C270.69 14.31, 283.53 19.22, 291.26 23.92 C298.99 28.62, 302.82 33.7, 304.01 38.96 C305.2 44.23, 303.79 50.44, 298.4 55.49 C293 60.55, 283.19 65.34, 271.63 69.29 C260.08 73.24, 245.2 76.33, 229.09 79.2 C212.97 82.07, 193.28 85.76, 174.96 86.52 C156.64 87.29, 137.08 85.22, 119.16 83.8 C101.25 82.37, 82.64 80.77, 67.47 77.99 C52.29 75.21, 38.52 71.08, 28.13 67.13 C17.75 63.17, 9.49 58.97, 5.14 54.27 C0.79 49.57, -0.23 44.32, 2.03 38.93 C4.29 33.53, 10.22 26.46, 18.71 21.91 C27.19 17.36, 39.25 14.96, 52.94 11.64 C66.63 8.32, 83.64 3.99, 100.85 2 C118.06 0.01, 146.9 0.09, 156.18 -0.29 C165.47 -0.66, 156.73 -1.25, 156.58 -0.24" stroke="#1e1e1e" stroke-width="2" fill="none"></path></g><g transform="translate(161.68745765457948 1606.6753335403855) rotate(0 42.1875 21.599999999999994)"><text x="42.1875" y="0" font-family="Cascadia, Segoe UI Emoji" font-size="36px" fill="#1e1e1e" text-anchor="middle" style="white-space: pre;" direction="ltr" dominant-baseline="text-before-edge">NOME</text></g><g stroke-linecap="round" transform="translate(10 1725.2134866747174) rotate(0 195.30518508053132 52.81838338655882)"><path d="M152.51 1.82 C170.33 -0.2, 193.83 0.22, 213.84 0.65 C233.85 1.08, 254.19 2.15, 272.6 4.38 C291 6.61, 309.22 10.52, 324.25 14.04 C339.28 17.56, 352.45 20.84, 362.8 25.48 C373.15 30.12, 381.88 36.58, 386.34 41.88 C390.81 47.18, 391.46 52.08, 389.58 57.29 C387.7 62.5, 383.1 68.05, 375.07 73.15 C367.04 78.25, 354.9 83.83, 341.41 87.88 C327.92 91.93, 311.46 94.61, 294.15 97.44 C276.85 100.27, 257.05 103.64, 237.59 104.86 C218.13 106.08, 197.3 105.43, 177.4 104.74 C157.5 104.06, 136.75 102.87, 118.18 100.74 C99.62 98.61, 81.06 95.36, 66 91.97 C50.95 88.57, 38.15 84.85, 27.88 80.36 C17.61 75.86, 8.8 70.49, 4.38 65 C-0.03 59.51, -0.69 52.94, 1.41 47.41 C3.51 41.87, 9 36.64, 17 31.79 C25.01 26.94, 36.19 22.38, 49.43 18.29 C62.68 14.2, 75.35 10.38, 96.45 7.25 C117.55 4.12, 159.11 0.65, 176.05 -0.51 C193 -1.66, 197.93 -0.79, 198.12 0.33 M218.44 0.05 C237.96 -0.21, 260.98 2.25, 279.1 4.47 C297.22 6.68, 312.87 9.34, 327.15 13.36 C341.42 17.39, 354.61 23.94, 364.74 28.61 C374.86 33.27, 383.61 36.23, 387.89 41.36 C392.18 46.49, 393.03 53.64, 390.45 59.37 C387.86 65.11, 381.21 70.61, 372.37 75.76 C363.52 80.92, 351.29 86.4, 337.38 90.32 C323.47 94.24, 306.25 96.9, 288.92 99.28 C271.59 101.66, 253.25 103.87, 233.41 104.62 C213.58 105.38, 190.29 104.25, 169.92 103.8 C149.55 103.34, 129.32 103.81, 111.2 101.91 C93.09 100, 75.72 96.35, 61.23 92.37 C46.74 88.39, 33.9 82.81, 24.26 78.03 C14.62 73.24, 7.3 68.82, 3.42 63.65 C-0.46 58.48, -1.33 52.73, 0.98 47.01 C3.3 41.29, 8.9 34.62, 17.29 29.33 C25.67 24.05, 37.53 19.27, 51.29 15.3 C65.06 11.33, 81.97 8.14, 99.88 5.51 C117.79 2.89, 138.9 0.39, 158.77 -0.45 C178.64 -1.29, 209.16 -0.01, 219.1 0.46 C229.04 0.92, 219 1.25, 218.4 2.35" stroke="#1e1e1e" stroke-width="2" fill="none"></path></g><g transform="translate(173.56293930919378 1756.5836329973295) rotate(0 31.640625 21.599999999999994)"><text x="31.640625" y="0" font-family="Cascadia, Segoe UI Emoji" font-size="36px" fill="#1e1e1e" text-anchor="middle" style="white-space: pre;" direction="ltr" dominant-baseline="text-before-edge">CPF</text></g><g stroke-linecap="round" transform="translate(32.11002095251297 1884.8969713317556) rotate(0 208.81686455151151 65.1017283601771)"><path d="M199.77 -0.62 C219.84 -1.84, 243.06 0.46, 263.66 2.39 C284.26 4.31, 305.34 7.19, 323.37 10.92 C341.4 14.65, 358.21 19.53, 371.83 24.76 C385.45 30, 397.54 35.97, 405.09 42.34 C412.64 48.71, 416.38 56.34, 417.13 62.98 C417.88 69.61, 415.06 75.69, 409.61 82.15 C404.15 88.61, 396.18 96.21, 384.39 101.76 C372.6 107.31, 355.92 111.27, 338.88 115.45 C321.85 119.63, 302.32 124.28, 282.18 126.84 C262.05 129.39, 239.29 130.66, 218.07 130.79 C196.84 130.92, 175.5 129.37, 154.85 127.59 C134.2 125.81, 112.18 123.73, 94.17 120.09 C76.17 116.44, 60.26 111.15, 46.81 105.75 C33.36 100.35, 21.14 93.87, 13.47 87.69 C5.8 81.51, 1.63 75.28, 0.77 68.64 C-0.09 62, 2.61 54.46, 8.31 47.86 C14.01 41.25, 23.3 34.47, 34.97 29.02 C46.65 23.56, 61.61 19.23, 78.36 15.15 C95.12 11.06, 113.97 7.12, 135.51 4.51 C157.06 1.91, 194.04 -0.08, 207.64 -0.49 C221.24 -0.9, 217.14 0.89, 217.13 2.07 M122.25 6.56 C139.32 3.02, 161.84 2.47, 183.07 1.73 C204.3 0.98, 228.33 1.03, 249.63 2.09 C270.94 3.16, 292.28 5.15, 310.9 8.09 C329.53 11.03, 346.73 14.62, 361.38 19.75 C376.03 24.88, 389.48 32.53, 398.81 38.88 C408.15 45.22, 414.83 51.51, 417.38 57.8 C419.94 64.09, 418.56 69.91, 414.14 76.62 C409.72 83.32, 401.36 92.19, 390.85 98.02 C380.34 103.84, 366.94 107.15, 351.08 111.57 C335.21 115.98, 315.1 121.27, 295.65 124.51 C276.2 127.76, 255.45 130.46, 234.37 131.04 C213.3 131.62, 190.63 129.32, 169.18 127.98 C147.73 126.64, 124.84 126.3, 105.65 123 C86.45 119.7, 68.33 113.34, 54.02 108.18 C39.7 103.02, 28.48 97.9, 19.76 92.06 C11.04 86.22, 4.36 79.52, 1.71 73.14 C-0.93 66.76, -0.48 60.2, 3.88 53.81 C8.24 47.41, 17.34 40.91, 27.89 34.77 C38.44 28.64, 51.68 21.94, 67.17 16.99 C82.66 12.04, 111.36 6.74, 120.83 5.06 C130.29 3.38, 122.42 5.86, 123.99 6.92" stroke="#1e1e1e" stroke-width="2" fill="none"></path></g><g transform="translate(145.84918955353783 1928.3648261014869) rotate(0 94.921875 21.600000000000023)"><text x="94.921875" y="0" font-family="Cascadia, Segoe UI Emoji" font-size="36px" fill="#1e1e1e" text-anchor="middle" style="white-space: pre;" direction="ltr" dominant-baseline="text-before-edge">MATRICULA</text></g><g stroke-linecap="round" transform="translate(1156.4485695943815 440.07126359844074) rotate(0 128.97512222299247 42.99170740766408)"><path d="M69.67 4.89 C82.64 2.05, 100.68 0.78, 117.24 0.38 C133.8 -0.01, 153.13 0.81, 169.02 2.53 C184.91 4.25, 199.98 7.34, 212.57 10.71 C225.16 14.08, 237.01 18.12, 244.56 22.76 C252.1 27.4, 256.72 32.89, 257.85 38.55 C258.98 44.2, 256.26 51.39, 251.35 56.69 C246.44 61.99, 239 66.13, 228.4 70.34 C217.8 74.55, 202.63 79.51, 187.75 81.97 C172.86 84.42, 155.51 84.93, 139.09 85.1 C122.66 85.27, 104.89 84.49, 89.22 82.99 C73.54 81.5, 57.66 79.53, 45.04 76.13 C32.42 72.73, 20.89 67.4, 13.48 62.59 C6.07 57.78, 1.85 52.7, 0.56 47.26 C-0.72 41.82, 0.89 35.42, 5.77 29.93 C10.66 24.45, 18.31 18.78, 29.85 14.36 C41.38 9.95, 66.43 5.13, 75 3.44 C83.56 1.75, 80.26 3.39, 81.23 4.23 M152.48 1.49 C168.28 1.44, 183.47 3.14, 197.27 6.04 C211.07 8.95, 225.49 14.34, 235.29 18.91 C245.1 23.48, 252.49 28, 256.1 33.46 C259.72 38.93, 260.24 46.4, 256.97 51.71 C253.7 57.02, 245.28 61.08, 236.47 65.32 C227.66 69.56, 217.18 73.83, 204.11 77.14 C191.04 80.46, 174.42 83.71, 158.05 85.21 C141.67 86.72, 122.27 87.03, 105.86 86.18 C89.46 85.32, 73.38 83.19, 59.62 80.07 C45.86 76.96, 32.77 72.33, 23.31 67.51 C13.84 62.69, 6.25 56.47, 2.85 51.15 C-0.55 45.82, 0.14 40.83, 2.9 35.57 C5.67 30.31, 10.7 24.18, 19.45 19.58 C28.19 14.97, 41.61 11.09, 55.39 7.94 C69.17 4.79, 86.37 1.68, 102.11 0.67 C117.85 -0.34, 141.94 1.82, 149.84 1.89 C157.73 1.96, 149.82 0.75, 149.46 1.09" stroke="#1e1e1e" stroke-width="2" fill="none"></path></g><g transform="translate(1243.0370082891322 461.5632431633576) rotate(0 42.1875 21.600000000000023)"><text x="42.1875" y="0" font-family="Cascadia, Segoe UI Emoji" font-size="36px" fill="#1e1e1e" text-anchor="middle" style="white-space: pre;" direction="ltr" dominant-baseline="text-before-edge">NOME</text></g><g stroke-linecap="round" transform="translate(2481.345251020497 703.9885638668617) rotate(0 162.1401536517617 38)"><path d="M226.45 2.24 C243.69 3.33, 260.75 7.19, 274.4 10.45 C288.05 13.71, 300.21 18.05, 308.33 21.79 C316.45 25.54, 321.19 28.67, 323.1 32.91 C325.02 37.15, 324.26 42.83, 319.82 47.23 C315.37 51.63, 306.55 55.83, 296.43 59.29 C286.31 62.75, 273.79 65.39, 259.11 67.99 C244.42 70.59, 226.23 73.65, 208.32 74.89 C190.42 76.12, 170.14 75.72, 151.69 75.42 C133.24 75.11, 114.58 74.55, 97.62 73.07 C80.66 71.58, 63.3 69.42, 49.94 66.51 C36.58 63.6, 25.66 59.63, 17.47 55.63 C9.28 51.63, 3.01 46.89, 0.79 42.53 C-1.44 38.16, -0.17 33.59, 4.12 29.45 C8.4 25.31, 16.14 21.35, 26.51 17.7 C36.88 14.05, 51.25 10.31, 66.31 7.55 C81.38 4.79, 99.34 2.32, 116.89 1.14 C134.44 -0.04, 152.33 0.18, 171.6 0.46 C190.87 0.74, 221.87 2.08, 232.51 2.81 C243.15 3.54, 236.9 4.21, 235.44 4.85 M221.45 1.53 C239.15 2.39, 257.03 5.02, 270.79 8.02 C284.56 11.02, 295.63 15.25, 304.04 19.53 C312.45 23.82, 318.3 29.37, 321.26 33.73 C324.22 38.08, 325.07 41.44, 321.8 45.67 C318.53 49.91, 311.26 55.69, 301.63 59.15 C292 62.62, 278.73 63.88, 264.01 66.47 C249.3 69.06, 230.81 73.03, 213.34 74.71 C195.86 76.38, 177.44 76.76, 159.19 76.53 C140.94 76.3, 121.19 74.93, 103.81 73.33 C86.43 71.73, 69.04 69.88, 54.9 66.91 C40.76 63.95, 27.73 59.45, 18.96 55.54 C10.19 51.63, 4.68 47.57, 2.25 43.45 C-0.17 39.33, 0.98 35.19, 4.41 30.81 C7.84 26.43, 13.26 20.74, 22.82 17.15 C32.39 13.56, 47.18 12.02, 61.79 9.28 C76.4 6.53, 92.85 2.15, 110.49 0.7 C128.12 -0.74, 148.9 0.5, 167.61 0.62 C186.33 0.74, 214.01 0.76, 222.78 1.41 C231.54 2.07, 221.45 3.87, 220.2 4.55" stroke="#1e1e1e" stroke-width="2" fill="none"></path></g><g transform="translate(2580.0537525224695 720.5185061817729) rotate(0 63.28125 21.600000000000023)"><text x="63.28125" y="0" font-family="Cascadia, Segoe UI Emoji" font-size="36px" fill="#1e1e1e" text-anchor="middle" style="white-space: pre;" direction="ltr" dominant-baseline="text-before-edge">mg/ ml</text></g><g stroke-linecap="round" transform="translate(1055.9118131312812 156.5186396825659) rotate(0 243.21023047764265 117.92011174673587)"><path d="M305 29.5 C351.21 51.53, 395.66 75.99, 425.42 88.5 M305 29.5 C347.55 50.87, 389.92 71.34, 425.42 88.5 M425.42 88.5 C487.4 119.65, 487.76 118.55, 425.42 147.5 M425.42 88.5 C487.49 119.86, 486.12 120.02, 425.42 147.5 M425.42 147.5 C394.99 162.66, 367.14 174.66, 305 206.34 M425.42 147.5 C398.67 158.47, 371.71 173.41, 305 206.34 M305 206.34 C245.28 233.96, 245.68 234.49, 183 206.34 M305 206.34 C242.44 236.45, 243.28 234.86, 183 206.34 M183 206.34 C144.23 187.95, 108.95 171.82, 61 147.5 M183 206.34 C154.75 194.2, 127.52 179.53, 61 147.5 M61 147.5 C-0.98 119.06, -1.1 118.91, 61 88.5 M61 147.5 C2.09 115.73, 1.08 116.4, 61 88.5 M61 88.5 C102.39 70.09, 138.65 51.51, 183 29.5 M61 88.5 C107.4 65.08, 152.71 42.5, 183 29.5 M183 29.5 C243.56 1.35, 245 1.53, 305 29.5 M183 29.5 C244.79 1.26, 242.16 -0.77, 305 29.5" stroke="#1e1e1e" stroke-width="2" fill="none"></path></g><g transform="translate(1204.0950533701025 252.87869555593397) rotate(0 94.921875 21.600000000000023)"><text x="94.921875" y="0" font-family="Cascadia, Segoe UI Emoji" font-size="36px" fill="#1e1e1e" text-anchor="middle" style="white-space: pre;" direction="ltr" dominant-baseline="text-before-edge">SIMILARES</text></g><g stroke-linecap="round" transform="translate(1117.4936622634095 572.4061895269003) rotate(0 221.10020952512969 114.23510825465041)"><path d="M277.5 28.75 C312.1 45, 342.99 63.94, 386.7 86.25 M277.5 28.75 C306.45 43.65, 332.63 57.49, 386.7 86.25 M386.7 86.25 C442.8 113.89, 443.95 113.94, 386.7 143.75 M386.7 86.25 C443.79 116.68, 441.12 117.12, 386.7 143.75 M386.7 143.75 C351.97 160.64, 317.25 179.84, 277.5 199.72 M386.7 143.75 C353.41 160.67, 320.68 177.09, 277.5 199.72 M277.5 199.72 C220.15 227.98, 223.22 230.37, 166.5 199.72 M277.5 199.72 C221.76 227.27, 220.04 229.5, 166.5 199.72 M166.5 199.72 C138.45 187.79, 108.46 171.63, 55.5 143.75 M166.5 199.72 C137.16 184.32, 107.83 169.51, 55.5 143.75 M55.5 143.75 C1.36 113.81, -0.14 115.75, 55.5 86.25 M55.5 143.75 C2.19 113.14, -0.57 116.28, 55.5 86.25 M55.5 86.25 C92.68 66.96, 127.72 46.38, 166.5 28.75 M55.5 86.25 C92.37 67.36, 130.4 48.87, 166.5 28.75 M166.5 28.75 C223.46 1.03, 222.14 0.39, 277.5 28.75 M166.5 28.75 C223.2 -1.38, 222.46 -1, 277.5 28.75" stroke="#1e1e1e" stroke-width="2" fill="none"></path></g><g transform="translate(1243.6218920259744 664.9237436542255) rotate(0 94.921875 21.600000000000023)"><text x="94.921875" y="0" font-family="Cascadia, Segoe UI Emoji" font-size="36px" fill="#1e1e1e" text-anchor="middle" style="white-space: pre;" direction="ltr" dominant-baseline="text-before-edge">GENERICOS</text></g><g stroke-linecap="round" transform="translate(1329.0586235340952 10) rotate(0 144.94347068869615 47.90504539711151)"><path d="M206.24 3.75 C222.03 5.44, 236.54 10.24, 248.69 14.57 C260.84 18.9, 272.45 24.34, 279.16 29.74 C285.87 35.14, 288.6 41.15, 288.95 46.97 C289.3 52.79, 286.84 59.22, 281.28 64.69 C275.73 70.17, 267.07 75.52, 255.63 79.81 C244.18 84.1, 227.94 87.8, 212.61 90.41 C197.29 93.02, 180.88 94.96, 163.67 95.45 C146.46 95.94, 126.55 94.68, 109.35 93.36 C92.15 92.04, 74.65 90.64, 60.48 87.55 C46.3 84.45, 33.77 79.63, 24.31 74.79 C14.85 69.95, 7.5 64.15, 3.72 58.5 C-0.06 52.85, -0.87 46.63, 1.63 40.91 C4.13 35.18, 9.91 29.24, 18.71 24.16 C27.52 19.08, 40.65 13.96, 54.47 10.42 C68.29 6.89, 85.06 4.65, 101.64 2.97 C118.21 1.29, 135.16 -0.02, 153.92 0.34 C172.67 0.71, 202.93 3.77, 214.16 5.16 C225.4 6.56, 222.38 7.73, 221.33 8.71 M101.15 1.85 C116.1 -0.28, 136.88 0.41, 154.26 0.99 C171.63 1.57, 189.41 3.15, 205.4 5.33 C221.38 7.51, 238.19 10.05, 250.14 14.08 C262.09 18.11, 270.4 24.3, 277.1 29.49 C283.79 34.67, 289.51 39.58, 290.3 45.18 C291.1 50.77, 287.95 57.46, 281.87 63.05 C275.78 68.65, 265.11 74.33, 253.79 78.76 C242.46 83.18, 229.37 86.9, 213.92 89.62 C198.46 92.35, 178.32 94.11, 161.07 95.1 C143.81 96.1, 127.22 97, 110.37 95.6 C93.52 94.2, 74.18 90.51, 59.97 86.71 C45.76 82.92, 34.79 77.59, 25.13 72.84 C15.48 68.09, 5.86 63.8, 2.01 58.21 C-1.83 52.61, -0.82 45.21, 2.06 39.26 C4.93 33.32, 10.73 27.25, 19.26 22.53 C27.78 17.8, 39.57 14.08, 53.21 10.91 C66.85 7.75, 92.9 4.83, 101.09 3.55 C109.28 2.27, 101.51 2.73, 102.34 3.24" stroke="#1e1e1e" stroke-width="2" fill="none"></path></g><g transform="translate(1410.730333210101 36.43106294376457) rotate(0 63.28125 21.600000000000023)"><text x="63.28125" y="0" font-family="Cascadia, Segoe UI Emoji" font-size="36px" fill="#1e1e1e" text-anchor="middle" style="white-space: pre;" direction="ltr" dominant-baseline="text-before-edge">ESTADO</text></g><g stroke-linecap="round" transform="translate(2291.471388179065 906.6599499329066) rotate(0 152.3134776728673 68.5)"><path d="M107.22 3.31 C122 0.36, 140.93 0.54, 158.23 0.86 C175.53 1.18, 194.82 2.22, 211.03 5.24 C227.23 8.27, 242.85 13.88, 255.46 19.01 C268.06 24.14, 278.72 29.41, 286.67 36.03 C294.63 42.64, 300.68 50.98, 303.19 58.72 C305.71 66.46, 305.46 74.75, 301.77 82.46 C298.07 90.17, 290.34 98.26, 281.01 104.99 C271.68 111.73, 259.58 118.23, 245.8 122.87 C232.02 127.51, 214.96 130.62, 198.34 132.86 C181.73 135.09, 163.41 136.38, 146.11 136.29 C128.81 136.21, 110.77 135.37, 94.53 132.34 C78.28 129.31, 61.43 123.55, 48.63 118.12 C35.83 112.69, 25.64 106.4, 17.71 99.74 C9.79 93.08, 3.54 85.78, 1.1 78.18 C-1.34 70.59, -0.59 61.88, 3.07 54.15 C6.72 46.43, 13.71 38.58, 23.02 31.82 C32.34 25.05, 43.57 18.43, 58.96 13.56 C74.35 8.68, 104.24 4.52, 115.37 2.59 C126.49 0.66, 125.08 1, 125.71 1.99 M155.74 0.07 C172.53 -0.4, 193.62 3.61, 210.04 6.26 C226.47 8.92, 241.47 11.07, 254.29 15.98 C267.1 20.89, 278.67 28.57, 286.92 35.74 C295.18 42.9, 301.58 51.27, 303.8 59 C306.03 66.72, 304.14 74.64, 300.27 82.07 C296.4 89.49, 289.38 96.84, 280.58 103.53 C271.78 110.22, 261.06 117.2, 247.48 122.2 C233.9 127.2, 215.67 131.15, 199.1 133.54 C182.52 135.94, 165.07 136.65, 148.03 136.57 C131 136.49, 113.04 135.94, 96.87 133.07 C80.69 130.2, 64.13 124.82, 51 119.32 C37.86 113.82, 26.08 107.12, 18.06 100.08 C10.04 93.03, 5.19 84.77, 2.88 77.04 C0.57 69.3, 1 61.09, 4.18 53.66 C7.36 46.23, 13.04 39.11, 21.93 32.45 C30.83 25.8, 43.91 18.32, 57.56 13.73 C71.21 9.14, 87.17 6.97, 103.84 4.9 C120.5 2.83, 148.54 1.93, 157.56 1.33 C166.57 0.73, 158.24 0.54, 157.94 1.31" stroke="#1e1e1e" stroke-width="2" fill="none"></path></g><g transform="translate(2380.301722923342 932.023135421628) rotate(0 63.28125 43.19999999999999)"><text x="63.28125" y="0" font-family="Cascadia, Segoe UI Emoji" font-size="36px" fill="#1e1e1e" text-anchor="middle" style="white-space: pre;" direction="ltr" dominant-baseline="text-before-edge">FAIXA </text><text x="63.28125" y="43.199999999999996" font-family="Cascadia, Segoe UI Emoji" font-size="36px" fill="#1e1e1e" text-anchor="middle" style="white-space: pre;" direction="ltr" dominant-baseline="text-before-edge">ETARIA</text></g><g stroke-linecap="round" transform="translate(1567.0869453929618 1000.5646812563011) rotate(0 249.109265309852 97)"><path d="M312.5 24.5 C338.21 36.65, 363.82 43.18, 435.72 73.5 M312.5 24.5 C344.7 37.8, 374.36 49.52, 435.72 73.5 M435.72 73.5 C497.66 99.96, 499.83 99.27, 435.72 122.5 M435.72 73.5 C498.92 100.16, 498.05 95.98, 435.72 122.5 M435.72 122.5 C404.99 133.09, 373.73 144.68, 312.5 169.5 M435.72 122.5 C399.34 137.29, 363.56 150.44, 312.5 169.5 M312.5 169.5 C249.23 194.98, 251.92 193.02, 187.5 169.5 M312.5 169.5 C250.13 193.32, 249.69 193.91, 187.5 169.5 M187.5 169.5 C152 158.09, 114.96 143.01, 62.5 122.5 M187.5 169.5 C159.49 160.32, 132.98 149.76, 62.5 122.5 M62.5 122.5 C1.79 97.33, 1.17 96.19, 62.5 73.5 M62.5 122.5 C-0.56 98.36, 1.7 97.41, 62.5 73.5 M62.5 73.5 C97.34 59.95, 136.54 48, 187.5 24.5 M62.5 73.5 C110.57 54.88, 159.65 36.44, 187.5 24.5 M187.5 24.5 C251.48 1.51, 251.1 1.49, 312.5 24.5 M187.5 24.5 C251.46 -1.06, 249.75 -1.46, 312.5 24.5" stroke="#1e1e1e" stroke-width="2" fill="none"></path></g><g transform="translate(1784.5009530478878 1075.964681256301) rotate(0 31.640625 21.599999999999994)"><text x="31.640625" y="0" font-family="Cascadia, Segoe UI Emoji" font-size="36px" fill="#1e1e1e" text-anchor="middle" style="white-space: pre;" direction="ltr" dominant-baseline="text-before-edge">TEM</text></g><g stroke-linecap="round" transform="translate(2365.3466797677193 369.10619723393756) rotate(0 93.80040236975913 46.131345427750375)"><path d="M99.8 0.78 C112.79 0.55, 127.44 2.31, 139.05 5.48 C150.66 8.64, 161.68 14.19, 169.48 19.76 C177.27 25.33, 183.3 32.46, 185.83 38.9 C188.36 45.34, 188.29 52.03, 184.68 58.39 C181.07 64.74, 173.27 71.89, 164.16 77.02 C155.04 82.15, 142.38 86.7, 129.97 89.17 C117.56 91.64, 103.1 92.27, 89.7 91.84 C76.29 91.41, 61.52 89.89, 49.53 86.59 C37.55 83.3, 25.81 77.63, 17.79 72.05 C9.77 66.47, 3.74 59.65, 1.42 53.1 C-0.9 46.55, 0.01 39.14, 3.86 32.76 C7.71 26.38, 15.51 19.71, 24.52 14.84 C33.54 9.97, 44.59 5.94, 57.96 3.54 C71.33 1.14, 95.84 0.85, 104.75 0.44 C113.66 0.02, 111.48 0.38, 111.41 1.06 M137.11 5.09 C149.04 7.52, 161.87 13.36, 169.85 18.52 C177.82 23.69, 182.31 29.42, 184.97 36.06 C187.62 42.7, 189.35 51.43, 185.78 58.36 C182.21 65.3, 172.67 72.77, 163.54 77.67 C154.41 82.57, 143.13 85.32, 131 87.77 C118.86 90.22, 104.32 92.38, 90.72 92.36 C77.12 92.33, 61.46 90.84, 49.41 87.62 C37.36 84.4, 26.53 78.59, 18.41 73.06 C10.3 67.53, 3.15 61.13, 0.71 54.41 C-1.72 47.7, 0.32 39.18, 3.82 32.77 C7.32 26.37, 13.18 20.7, 21.71 15.98 C30.25 11.27, 42.42 7.19, 55.04 4.48 C67.66 1.77, 83.44 -0.42, 97.43 -0.27 C111.43 -0.13, 132.58 4.38, 139 5.36 C145.42 6.34, 136.9 5.19, 135.94 5.62" stroke="#1e1e1e" stroke-width="2" fill="none"></path></g><g transform="translate(2406.5858065437947 393.51775548446676) rotate(0 52.734375 21.600000000000023)"><text x="52.734375" y="0" font-family="Cascadia, Segoe UI Emoji" font-size="36px" fill="#1e1e1e" text-anchor="middle" style="white-space: pre;" direction="ltr" dominant-baseline="text-before-edge">PREÇO</text></g><g stroke-linecap="round" transform="translate(2006.2100583576794 110.94986714686252) rotate(0 98.4135369125338 49.206768456267014)"><path d="M85.29 1.14 C97.62 -0.53, 112.32 0.32, 124.94 1.95 C137.57 3.59, 150.58 6.87, 161.03 10.97 C171.48 15.08, 181.69 20.48, 187.67 26.59 C193.64 32.69, 196.58 40.85, 196.9 47.59 C197.23 54.33, 194.62 60.76, 189.59 67.04 C184.57 73.31, 176.45 80.45, 166.77 85.26 C157.09 90.06, 144.08 93.63, 131.54 95.87 C118.99 98.1, 104.79 99.08, 91.49 98.68 C78.2 98.27, 63.53 96.5, 51.78 93.44 C40.02 90.37, 28.93 85.69, 20.96 80.3 C12.99 74.91, 7.09 67.6, 3.96 61.11 C0.83 54.62, 0 48.03, 2.19 41.37 C4.39 34.7, 9.94 26.89, 17.13 21.12 C24.31 15.35, 33.23 10.35, 45.32 6.75 C57.4 3.15, 81.43 0.62, 89.63 -0.48 C97.83 -1.58, 94.56 -0.76, 94.52 0.16 M142.99 5.01 C155.03 7.09, 165.56 11.6, 173.99 16.89 C182.41 22.18, 189.88 29.98, 193.55 36.76 C197.22 43.53, 198.2 51.21, 196.01 57.53 C193.82 63.84, 187.88 69.26, 180.39 74.64 C172.91 80.02, 162.24 85.88, 151.1 89.81 C139.96 93.74, 126.42 96.83, 113.57 98.22 C100.73 99.6, 86.73 100.04, 74.05 98.12 C61.37 96.2, 48.17 91.02, 37.51 86.68 C26.85 82.34, 16.33 78.05, 10.09 72.09 C3.86 66.13, 0.81 57.64, 0.09 50.94 C-0.62 44.23, 0.93 37.75, 5.8 31.85 C10.67 25.96, 19.89 20.31, 29.31 15.58 C38.72 10.86, 49.88 6.31, 62.3 3.51 C74.71 0.71, 90.21 -1.65, 103.81 -1.21 C117.42 -0.77, 137.34 4.87, 143.91 6.14 C150.48 7.42, 144.3 5.6, 143.24 6.44" stroke="#1e1e1e" stroke-width="2" fill="none"></path></g><g transform="translate(2083.440965958808 138.76219594742702) rotate(0 21.09375 21.600000000000023)"><text x="21.09375" y="0" font-family="Cascadia, Segoe UI Emoji" font-size="36px" fill="#1e1e1e" text-anchor="middle" style="white-space: pre;" direction="ltr" dominant-baseline="text-before-edge">ID</text></g><g stroke-linecap="round" transform="translate(2586.777137820921 433.6900808327882) rotate(0 167.61055505415948 44.593633913492)"><path d="M191.7 0.34 C210.31 0.37, 231.57 2.99, 248.56 5.55 C265.56 8.11, 281.31 12.05, 293.66 15.71 C306.01 19.37, 315.87 22.88, 322.68 27.52 C329.49 32.16, 333.77 38.22, 334.51 43.54 C335.26 48.86, 333.2 54.64, 327.14 59.45 C321.08 64.26, 310.34 68.58, 298.17 72.39 C286.01 76.19, 270.42 79.65, 254.15 82.26 C237.88 84.87, 219.15 86.91, 200.54 88.03 C181.93 89.14, 161.17 89.5, 142.5 88.95 C123.83 88.41, 105.11 87.13, 88.51 84.77 C71.92 82.41, 55.75 78.93, 42.93 74.79 C30.11 70.65, 18.66 64.79, 11.59 59.93 C4.52 55.08, 1.13 50.66, 0.54 45.65 C-0.06 40.65, 2.16 34.85, 8.02 29.88 C13.88 24.91, 23.83 19.82, 35.69 15.84 C47.56 11.86, 62.82 8.49, 79.19 5.99 C95.56 3.49, 111.83 1.49, 133.9 0.85 C155.97 0.2, 195.79 1.44, 211.61 2.1 C227.43 2.75, 229.45 4.18, 228.84 4.76 M228.31 3.79 C246.38 5.01, 264.19 7.6, 278.44 10.86 C292.69 14.12, 304.55 19.03, 313.8 23.37 C323.05 27.7, 330.65 31.81, 333.94 36.86 C337.23 41.92, 337.47 48.38, 333.55 53.71 C329.63 59.04, 320.25 64.77, 310.39 68.86 C300.53 72.94, 289.13 75.45, 274.4 78.22 C259.68 80.99, 240.13 83.63, 222.05 85.48 C203.97 87.34, 184.82 89.05, 165.91 89.37 C146.99 89.68, 126.72 89.28, 108.55 87.37 C90.38 85.46, 71.66 81.32, 56.89 77.89 C42.12 74.47, 29.04 71.22, 19.93 66.82 C10.82 62.42, 5.21 56.6, 2.22 51.49 C-0.77 46.39, -1.47 41.11, 1.98 36.18 C5.43 31.25, 13.09 26.3, 22.9 21.93 C32.72 17.57, 45.79 13.04, 60.87 10 C75.95 6.96, 95.23 5.39, 113.36 3.71 C131.49 2.03, 150.76 0.03, 169.65 -0.09 C188.55 -0.21, 217.4 2.42, 226.73 2.98 C236.05 3.53, 226.51 2.4, 225.61 3.24" stroke="#1e1e1e" stroke-width="2" fill="none"></path></g><g transform="translate(2648.900382797843 456.65125380829954) rotate(0 105.46875 21.600000000000023)"><text x="105.46875" y="0" font-family="Cascadia, Segoe UI Emoji" font-size="36px" fill="#1e1e1e" text-anchor="middle" style="white-space: pre;" direction="ltr" dominant-baseline="text-before-edge">VENCIMENTO</text></g><g stroke-linecap="round" transform="translate(320.1824721043728 732.065893002144) rotate(0 264.4863804524356 72.27244117014232)"><path d="M32 0 C141.4 1.26, 250.84 1.18, 496.97 0 M32 0 C179.46 0.87, 326.52 0.88, 496.97 0 M496.97 0 C518.32 -0.56, 527.54 12.46, 528.97 32 M496.97 0 C520.57 1.56, 531.1 10.25, 528.97 32 M528.97 32 C530.66 64.47, 529.08 96.32, 528.97 112.54 M528.97 32 C530.33 49.49, 528.94 65.5, 528.97 112.54 M528.97 112.54 C527.84 132.69, 519.84 143.77, 496.97 144.54 M528.97 112.54 C530.14 132.52, 518.14 145.55, 496.97 144.54 M496.97 144.54 C387.13 145.8, 276.4 145.41, 32 144.54 M496.97 144.54 C345.56 145.64, 193.68 145.75, 32 144.54 M32 144.54 C12.03 145.04, 1.39 133.22, 0 112.54 M32 144.54 C12.85 142.82, 1.23 135.44, 0 112.54 M0 112.54 C-2.18 91.58, -2.19 70.44, 0 32 M0 112.54 C0.28 83.01, -0.74 53.11, 0 32 M0 32 C-0.45 11.51, 9.65 -1.38, 32 0 M0 32 C-0.15 11.22, 9.19 -2.08, 32 0" stroke="#1e1e1e" stroke-width="2" fill="none"></path></g><g transform="translate(458.1063525568085 782.7383341722863) rotate(0 126.5625 21.600000000000023)"><text x="126.5625" y="0" font-family="Cascadia, Segoe UI Emoji" font-size="36px" fill="#1e1e1e" text-anchor="middle" style="white-space: pre;" direction="ltr" dominant-baseline="text-before-edge">FORNECEDORES</text></g><g stroke-linecap="round" transform="translate(153.74114793925696 587.3033802600548) rotate(0 102.06482847277613 40.51838908625882)"><path d="M60.98 3.33 C72.37 0.63, 87.67 0.13, 101.41 0.15 C115.14 0.16, 130.74 1.33, 143.38 3.42 C156.02 5.5, 168.02 8.59, 177.25 12.67 C186.48 16.74, 194.39 22.51, 198.76 27.86 C203.13 33.2, 204.97 39.15, 203.47 44.75 C201.98 50.35, 196.62 56.57, 189.81 61.45 C183 66.33, 173.72 70.76, 162.59 74.02 C151.46 77.28, 136.58 79.85, 123.04 81.01 C109.5 82.16, 94.88 82.34, 81.36 80.95 C67.84 79.56, 53.24 76.11, 41.93 72.68 C30.63 69.24, 20.43 64.9, 13.52 60.36 C6.6 55.82, 1.83 50.94, 0.45 45.44 C-0.94 39.94, 0.88 32.74, 5.22 27.34 C9.56 21.94, 15.37 17.27, 26.49 13.06 C37.62 8.86, 62.27 3.96, 71.98 2.12 C81.68 0.28, 84.28 1.51, 84.72 2.02 M66.19 2.29 C78.03 -0.43, 94.85 -1.67, 108.67 -1.35 C122.49 -1.02, 136.85 1.57, 149.12 4.23 C161.38 6.89, 173.75 10.21, 182.27 14.63 C190.79 19.06, 196.84 25.49, 200.23 30.79 C203.62 36.08, 204.86 40.86, 202.59 46.38 C200.33 51.91, 194.31 59.43, 186.65 63.92 C178.98 68.42, 167.91 70.65, 156.58 73.34 C145.25 76.02, 132.34 78.86, 118.65 80.06 C104.97 81.25, 88.17 81.86, 74.45 80.49 C60.73 79.11, 46.85 75.21, 36.31 71.79 C25.78 68.37, 17.06 64.89, 11.23 59.96 C5.4 55.04, 2.17 47.76, 1.35 42.22 C0.52 36.68, 1.43 31.81, 6.31 26.71 C11.18 21.6, 20.66 15.76, 30.58 11.61 C40.49 7.46, 59.75 3.19, 65.8 1.81 C71.85 0.42, 66 2.35, 66.89 3.3" stroke="#1e1e1e" stroke-width="2" fill="none"></path></g><g transform="translate(234.5414940782913 606.0709416606651) rotate(0 21.09375 21.600000000000023)"><text x="21.09375" y="0" font-family="Cascadia, Segoe UI Emoji" font-size="36px" fill="#1e1e1e" text-anchor="middle" style="white-space: pre;" direction="ltr" dominant-baseline="text-before-edge">ID</text></g><g stroke-linecap="round" transform="translate(489.9177120967307 437.73846789923687) rotate(0 289.65485819633665 90.04029560861426)"><path d="M362.5 22.75 C394.66 31.78, 424.44 43.45, 506.81 68.25 M362.5 22.75 C403.29 33.61, 445.47 47.37, 506.81 68.25 M506.81 68.25 C579.13 89.28, 579.96 90.59, 506.81 113.75 M506.81 68.25 C581.08 88.78, 579.89 92.65, 506.81 113.75 M506.81 113.75 C456.24 128.53, 404.23 144.29, 362.5 157.33 M506.81 113.75 C457.43 129.07, 409.01 144.1, 362.5 157.33 M362.5 157.33 C288.82 178.57, 290.68 180.2, 217.5 157.33 M362.5 157.33 C291.53 179.97, 290.42 179.77, 217.5 157.33 M217.5 157.33 C173.18 145.29, 131.46 130.83, 72.5 113.75 M217.5 157.33 C185.82 146.76, 153.25 137.85, 72.5 113.75 M72.5 113.75 C-0.55 92.11, -1.28 89.3, 72.5 68.25 M72.5 113.75 C-1.61 88.81, 0.72 92.45, 72.5 68.25 M72.5 68.25 C112.27 54.69, 155.64 41.85, 217.5 22.75 M72.5 68.25 C117.02 54.39, 162.41 39.08, 217.5 22.75 M217.5 22.75 C290.67 -1.49, 289.16 0.58, 362.5 22.75 M217.5 22.75 C290.76 -1.43, 288.73 -0.75, 362.5 22.75" stroke="#1e1e1e" stroke-width="2" fill="none"></path></g><g transform="translate(653.182641194899 506.158615703544) rotate(0 126.5625 21.600000000000023)"><text x="126.5625" y="0" font-family="Cascadia, Segoe UI Emoji" font-size="36px" fill="#1e1e1e" text-anchor="middle" style="white-space: pre;" direction="ltr" dominant-baseline="text-before-edge">REABASTERCER</text></g><g stroke-linecap="round"><g transform="translate(345.38943528844175 1633.3626090262992) rotate(0 84.57413328420898 38.44278785645861)"><path d="M0.9 1.01 C29.04 13.78, 140.3 64.4, 168.24 77.08 M-0.09 0.5 C28.48 12.83, 142.56 62.06, 170.47 75.06" stroke="#1e1e1e" stroke-width="2" fill="none"></path></g></g><mask></mask><g stroke-linecap="round"><g transform="translate(400.74704980174215 1780.9829143951004) rotate(0 55.35761451330052 -9.22626908555003)"><path d="M0.07 0.32 C18.25 -2.64, 91.42 -14.98, 109.82 -18.13 M-1.36 -0.56 C17.13 -3.87, 93.57 -17.3, 112.05 -20.08" stroke="#1e1e1e" stroke-width="2" fill="none"></path></g></g><mask></mask><g stroke-linecap="round"><g transform="translate(388.44535768767537 1907.0752585642847) rotate(0 58.43303754181716 -46.131345427750375)"><path d="M0.68 -0.66 C20.48 -15.86, 98.79 -77.1, 118.06 -92.38 M-0.43 1.61 C19.39 -13.3, 98.47 -75.46, 117.74 -90.91" stroke="#1e1e1e" stroke-width="2" fill="none"></path></g></g><mask></mask><g stroke-linecap="round"><g transform="translate(1848.675610976916 639.7434237434129) rotate(0 -252.1846883383687 78.42328722717559)"><path d="M-0.09 -0.77 C-84.05 25.17, -420.01 130.36, -504.12 156.62 M-1.59 1.45 C-85.66 28.09, -420.92 131.94, -504.94 158.04" stroke="#1e1e1e" stroke-width="2" fill="none"></path></g></g><mask></mask><g stroke-linecap="round"><g transform="translate(1335.0799652146286 578.2349631730791) rotate(0 259.87324590966045 27.678807256650202)"><path d="M-0.67 -0.43 C85.89 8.54, 432.77 44.78, 519.4 54.16 M1.17 -1.7 C87.55 7.34, 432.13 45.83, 518.27 55.07" stroke="#1e1e1e" stroke-width="2" fill="none"></path></g></g><mask></mask><g stroke-linecap="round"><g transform="translate(1408.8901178990293 479.82142626054497) rotate(0 221.43045805320185 61.508460570333796)"><path d="M0.31 0.99 C74.11 21.52, 368.29 103.64, 441.93 124.04 M-0.99 0.47 C73.26 20.61, 369.88 102.33, 444.15 122.46" stroke="#1e1e1e" stroke-width="2" fill="none"></path></g></g><mask></mask><g stroke-linecap="round"><g transform="translate(1298.1748888724285 381.4078893480107) rotate(0 273.7126495379855 92.26269085550081)"><path d="M0.9 0.75 C92.16 31.46, 456.76 152.93, 547.99 183.5 M-0.09 0.1 C91.02 30.98, 456 153.62, 547.34 184.49" stroke="#1e1e1e" stroke-width="2" fill="none"></path></g></g><mask></mask><g stroke-linecap="round"><g transform="translate(1522.680769954147 273.76808334992666) rotate(0 161.4597089971262 147.62030536880116)"><path d="M0.71 0.6 C54.46 49.66, 268.6 245.19, 322.36 294.29 M-0.37 -0.13 C53.18 49.06, 267.27 245.89, 321.12 295.32" stroke="#1e1e1e" stroke-width="2" fill="none"></path></g></g><mask></mask><g stroke-linecap="round"><g transform="translate(2592.9279838779557 479.82142626054497) rotate(0 -189.13851625377652 38.44278785645861)"><path d="M-0.92 -1.04 C-64.19 11.97, -315.66 64.76, -378.45 77.85 M0.8 1.02 C-62.74 13.74, -316.34 63.83, -379.5 76.23" stroke="#1e1e1e" stroke-width="2" fill="none"></path></g></g><mask></mask><g stroke-linecap="round"><g transform="translate(2319.2153343399696 944.2103035665655) rotate(0 -89.187267826984 -150.69572839731796)"><path d="M-0.7 0.42 C-30.66 -50.05, -149.11 -251.7, -178.78 -301.84 M1.13 -0.4 C-29.1 -50.79, -149.81 -250.24, -179.94 -300.54" stroke="#1e1e1e" stroke-width="2" fill="none"></path></g></g><mask></mask><g stroke-linecap="round"><g transform="translate(2490.8600276592524 738.774783939724) rotate(0 -138.776037473933 -57.09232111452934)"><path d="M0.6 -0.11 C-45.76 -19.04, -230.74 -94.08, -277.05 -113.08 M-0.54 -1.22 C-47.12 -20.49, -231.51 -96.04, -277.73 -114.63" stroke="#1e1e1e" stroke-width="2" fill="none"></path></g></g><mask></mask><g stroke-linecap="round"><g transform="translate(2040.5160298029127 204.89435684496516) rotate(0 -6.11700570940269 170.9756426004418)"><path d="M0.15 0.63 C-2.12 57.48, -11 284.53, -13.05 341.59 M-1.24 -0.09 C-3.17 56.89, -8.83 286.06, -10.77 342.93" stroke="#1e1e1e" stroke-width="2" fill="none"></path></g></g><mask></mask><g stroke-linecap="round"><g transform="translate(2368.4221027962367 402.93585054762775) rotate(0 -103.02667145530904 76.88557571291722)"><path d="M-0.09 1.12 C-34.43 26.83, -171.26 129.24, -205.47 154.8 M-1.6 0.67 C-36.09 26, -172.09 127.91, -206.12 153.22" stroke="#1e1e1e" stroke-width="2" fill="none"></path></g></g><mask></mask><g stroke-linecap="round" transform="translate(1199.7613519598942 885.7772660247483) rotate(0 127.6300556834426 41.51821088497525)"><path d="M174.46 1.96 C189.58 3, 204.19 7.2, 215.93 10.96 C227.68 14.71, 238.24 19.58, 244.93 24.48 C251.63 29.37, 255.94 34.92, 256.1 40.31 C256.25 45.71, 251.91 51.93, 245.86 56.85 C239.81 61.78, 231.02 65.96, 219.8 69.86 C208.57 73.76, 193.46 78.09, 178.51 80.25 C163.56 82.41, 146.31 82.88, 130.12 82.81 C113.93 82.74, 96.46 81.7, 81.38 79.82 C66.31 77.94, 51.59 75.25, 39.69 71.54 C27.79 67.83, 16.45 62.32, 10 57.56 C3.54 52.8, 1.23 48.31, 0.95 42.98 C0.68 37.64, 2.52 30.42, 8.35 25.53 C14.19 20.63, 24.71 17.31, 35.95 13.61 C47.19 9.9, 60.8 5.49, 75.79 3.3 C90.78 1.12, 107.57 0.4, 125.89 0.5 C144.22 0.6, 173.86 2.61, 185.74 3.9 C197.62 5.18, 198.15 7.32, 197.18 8.21 M114.7 0.6 C129.98 -0.56, 150.75 0.31, 166.54 1.71 C182.33 3.11, 197.06 5.33, 209.46 8.98 C221.85 12.62, 233.16 18.9, 240.9 23.56 C248.65 28.23, 254.66 32.16, 255.9 36.99 C257.15 41.82, 253.43 47.16, 248.37 52.55 C243.31 57.94, 235.69 64.81, 225.55 69.33 C215.41 73.86, 202.16 77.38, 187.52 79.71 C172.88 82.04, 154.19 83.03, 137.72 83.33 C121.25 83.62, 104.14 83.23, 88.7 81.48 C73.26 79.74, 57.36 76.5, 45.09 72.85 C32.81 69.21, 22.67 64.11, 15.07 59.61 C7.46 55.12, 0.87 51.06, -0.52 45.89 C-1.92 40.73, 1.53 33.97, 6.68 28.62 C11.83 23.28, 20.11 17.86, 30.38 13.82 C40.65 9.77, 54.04 6.44, 68.29 4.34 C82.54 2.24, 108.01 2, 115.87 1.21 C123.73 0.43, 115.29 -0.92, 115.47 -0.35" stroke="#1e1e1e" stroke-width="2" fill="none"></path></g><g transform="translate(1242.768329786358 905.8376684502244) rotate(0 84.375 21.599999999999994)"><text x="84.375" y="0" font-family="Cascadia, Segoe UI Emoji" font-size="36px" fill="#1e1e1e" text-anchor="middle" style="white-space: pre;" direction="ltr" dominant-baseline="text-before-edge">UNIDADES</text></g><g stroke-linecap="round"><g transform="translate(1415.0409639560628 901.1543811673316) rotate(0 218.410993302144 -130.23954010508908)"><path d="M-0.5 -0.38 C72.17 -43.81, 363.73 -216.72, 436.46 -259.98 M1.44 -1.62 C73.88 -45.47, 362.52 -218.45, 435.32 -261.84" stroke="#1e1e1e" stroke-width="2" fill="none"></path></g></g><mask></mask><g stroke-linecap="round"><g transform="translate(1926.4695535776605 547.3807017061112) rotate(0 -199.84226546377903 -221.73629781423693)"><path d="M-1.11 -1.03 C-67.48 -74.77, -332.77 -369.77, -399.32 -443.31 M0.51 1.04 C-65.9 -72.41, -333.67 -367.51, -400.07 -441.69" stroke="#1e1e1e" stroke-width="2" fill="none"></path></g></g><mask></mask><g stroke-linecap="round"><g transform="translate(1972.9601589960782 649.8456117652457) rotate(0 -78.88215271263721 171.7710447466152)"><path d="M-1.08 1.11 C-27.26 58.5, -131.48 286.78, -157.72 344 M0.55 0.64 C-25.72 57.69, -132.55 285.14, -158.65 342.12" stroke="#1e1e1e" stroke-width="2" fill="none"></path></g></g><mask></mask><g stroke-linecap="round"><g transform="translate(1804.1941301554502 1191.8449110182646) rotate(0 -28.089729336448727 152.1543997463165)"><path d="M0.47 0.34 C-8.9 50.89, -46.97 253.1, -56.27 303.59 M-0.74 -0.52 C-10.27 50.14, -48.11 253.99, -57.27 304.76" stroke="#1e1e1e" stroke-width="2" fill="none"></path></g></g><mask></mask><g stroke-linecap="round"><g transform="translate(1970.540947623158 1582.3335490241811) rotate(0 -51.98646661499333 -19.66498123291467)"><path d="M0.52 0.92 C-16.76 -5.54, -86.57 -32.68, -104 -39.34 M-0.67 0.36 C-18.07 -5.85, -87.6 -31.49, -104.97 -37.81" stroke="#1e1e1e" stroke-width="2" fill="none"></path></g></g><mask></mask><g stroke-linecap="round"><g transform="translate(649.8563151115941 1691.7956465681177) rotate(0 -63.04617208459217 -98.41353691253414)"><path d="M0.01 0.28 C-20.98 -32.62, -104.66 -164.44, -125.59 -197.16 M-1.44 -0.61 C-22.58 -33.36, -105.5 -162.9, -126.28 -195.8" stroke="#1e1e1e" stroke-width="2" fill="none"></path></g></g><mask></mask><g stroke-linecap="round" transform="translate(250.05132140442424 1344.2728443457318) rotate(0 230.6567271387519 77.47203880038312)"><path d="M162.82 3.16 C182.46 -0.2, 208.27 0.23, 230.66 0.32 C253.05 0.42, 275.44 1.41, 297.15 3.75 C318.86 6.08, 342.05 9.97, 360.92 14.33 C379.78 18.68, 396.26 24.21, 410.34 29.86 C424.42 35.5, 437.05 41.25, 445.43 48.17 C453.81 55.09, 458.78 63.56, 460.62 71.39 C462.47 79.21, 461.56 87.56, 456.5 95.13 C451.44 102.71, 441.82 110.19, 430.26 116.83 C418.7 123.47, 403.76 129.89, 387.15 134.99 C370.54 140.08, 350.9 144.16, 330.6 147.42 C310.3 150.68, 287.56 153.52, 265.36 154.53 C243.17 155.54, 219.83 154.68, 197.43 153.48 C175.02 152.28, 151.5 150.39, 130.92 147.35 C110.35 144.31, 90.53 140.25, 73.98 135.23 C57.43 130.21, 43 124.02, 31.63 117.25 C20.25 110.47, 10.98 102.06, 5.72 94.58 C0.46 87.11, -1.75 79.87, 0.04 72.4 C1.84 64.94, 8.09 57.08, 16.49 49.79 C24.89 42.49, 36.65 34.67, 50.45 28.65 C64.25 22.63, 76.34 18.26, 99.31 13.64 C122.28 9.02, 168.87 3.08, 188.27 0.93 C207.68 -1.22, 214.96 -0.7, 215.71 0.74 M328 6.91 C348.96 9.02, 368.35 16.17, 385.42 21.5 C402.49 26.84, 418.64 32.63, 430.41 38.9 C442.19 45.16, 450.93 51.75, 456.08 59.1 C461.22 66.44, 463.13 75.23, 461.3 82.96 C459.47 90.68, 453.43 98.37, 445.09 105.45 C436.75 112.54, 425.04 119.36, 411.28 125.46 C397.52 131.56, 380.79 137.59, 362.53 142.07 C344.28 146.54, 323.53 150.42, 301.73 152.32 C279.92 154.22, 254.42 153.41, 231.7 153.47 C208.97 153.52, 187.09 154.55, 165.39 152.65 C143.69 150.74, 120.3 146.41, 101.48 142.04 C82.65 137.67, 66.48 132.22, 52.45 126.42 C38.41 120.62, 25.9 114.46, 17.26 107.22 C8.61 99.99, 2.35 90.81, 0.58 83.02 C-1.19 75.22, 1.94 67.67, 6.64 60.45 C11.35 53.23, 18.13 46.04, 28.79 39.69 C39.45 33.34, 53.77 27.47, 70.6 22.34 C87.43 17.21, 109.45 12.51, 129.77 8.91 C150.1 5.31, 170.37 2.14, 192.56 0.74 C214.74 -0.65, 239.97 -0.74, 262.87 0.54 C285.77 1.81, 319.37 7.14, 329.95 8.4 C340.53 9.65, 328 7.06, 326.34 8.05" stroke="#1e1e1e" stroke-width="2" fill="none"></path></g><g transform="translate(364.59348765706955 1378.7638791580166) rotate(0 116.015625 43.199999999999996)"><text x="116.015625" y="0" font-family="Cascadia, Segoe UI Emoji" font-size="36px" fill="#1e1e1e" text-anchor="middle" style="white-space: pre;" direction="ltr" dominant-baseline="text-before-edge">UNIDADE DE </text><text x="116.015625" y="43.199999999999996" font-family="Cascadia, Segoe UI Emoji" font-size="36px" fill="#1e1e1e" text-anchor="middle" style="white-space: pre;" direction="ltr" dominant-baseline="text-before-edge">TRABALHO</text></g><g stroke-linecap="round"><g transform="translate(322.81017493969557 657.4561989236573) rotate(0 44.74042793057839 38.90471993963337)"><path d="M-0.08 0.51 C15.12 13.22, 75.83 63.75, 90.6 76.7 M-1.58 -0.27 C13.62 12.51, 74.82 64.93, 90.23 77.65" stroke="#1e1e1e" stroke-width="2" fill="none"></path></g></g><mask></mask><g stroke-linecap="round"><g transform="translate(1845.9299605763435 614.6610069900605) rotate(0 -414.33526735709586 -40.84995593661506)"><path d="M0.55 0.07 C-137.55 -13.43, -690.98 -67.35, -829.04 -81.01 M-0.62 -0.94 C-138.88 -14.78, -692.26 -69.47, -830.19 -82.77" stroke="#1e1e1e" stroke-width="2" fill="none"></path></g></g><mask></mask><g stroke-linecap="round"><g transform="translate(791.6120502122781 624.3871869749688) rotate(0 -40.84995593661506 55.43922591397762)"><path d="M0.93 0.56 C-12.83 19.05, -68.07 93.06, -82.02 111.48 M-0.04 -0.19 C-14.03 17.9, -69.74 90.9, -83.14 109.67" stroke="#1e1e1e" stroke-width="2" fill="none"></path></g></g><mask></mask><g stroke-linecap="round" transform="translate(1789.4243440313119 1703.9047558554073) rotate(0 159.03054811962443 57.82929022531789)"><path d="M153.16 0.23 C170.43 -0.95, 190.46 0.61, 207.75 2.67 C225.05 4.74, 242.7 8.72, 256.92 12.64 C271.14 16.55, 283.44 20.61, 293.07 26.17 C302.7 31.74, 310.86 39.34, 314.7 46.02 C318.54 52.71, 318.59 59.94, 316.1 66.26 C313.6 72.58, 308.18 78.35, 299.71 83.95 C291.23 89.54, 278.61 95.14, 265.26 99.82 C251.91 104.51, 236.27 109.55, 219.63 112.03 C203 114.51, 183.64 114.45, 165.44 114.7 C147.25 114.96, 127.72 115.29, 110.47 113.57 C93.22 111.85, 76.38 108.6, 61.96 104.4 C47.53 100.2, 33.66 94.04, 23.92 88.37 C14.18 82.69, 7.41 76.73, 3.52 70.35 C-0.36 63.97, -1.89 56.75, 0.61 50.08 C3.12 43.41, 9.95 36.02, 18.55 30.33 C27.15 24.64, 38.74 20.33, 52.22 15.96 C65.69 11.59, 81.97 6.89, 99.4 4.12 C116.83 1.34, 146.9 -0.06, 156.78 -0.68 C166.65 -1.3, 158.84 -0.55, 158.66 0.37 M144.51 -1.01 C161.16 -2.61, 181.9 -0.56, 199.37 1.43 C216.84 3.43, 234.25 7.17, 249.32 10.98 C264.39 14.79, 279.1 19.18, 289.8 24.31 C300.51 29.43, 308.89 35.53, 313.54 41.73 C318.19 47.93, 319.39 54.84, 317.69 61.53 C315.99 68.21, 311.27 75.74, 303.34 81.83 C295.41 87.93, 282.82 93.24, 270.13 98.1 C257.44 102.97, 243.51 108.22, 227.21 111.01 C210.92 113.8, 190.65 114.29, 172.35 114.83 C154.06 115.37, 134.95 115.62, 117.42 114.25 C99.89 112.89, 81.81 110.24, 67.19 106.61 C52.56 102.98, 40.2 98.12, 29.66 92.46 C19.13 86.8, 8.94 79.27, 3.97 72.64 C-0.99 66.02, -1.81 59.18, -0.13 52.69 C1.55 46.2, 6.18 39.69, 14.06 33.69 C21.94 27.69, 34.07 21.39, 47.17 16.69 C60.26 11.99, 76.29 8.42, 92.62 5.48 C108.96 2.55, 136.54 -0.02, 145.18 -0.93 C153.82 -1.84, 144.01 -1.06, 144.46 0.01" stroke="#1e1e1e" stroke-width="2" fill="none"></path></g><g transform="translate(1906.2673921509363 1740.242562811198) rotate(0 42.1875 21.599999999999994)"><text x="42.1875" y="0" font-family="Cascadia, Segoe UI Emoji" font-size="36px" fill="#1e1e1e" text-anchor="middle" style="white-space: pre;" direction="ltr" dominant-baseline="text-before-edge">NOME</text></g><g stroke-linecap="round"><g transform="translate(1821.3380790014464 1564.9282868812186) rotate(0 48.7178348044431 67.40617672975606)"><path d="M0.37 0.52 C16.58 23.3, 81.45 113.14, 97.65 135.59 M-0.9 -0.25 C15.14 22.28, 80.52 111.66, 96.81 133.88" stroke="#1e1e1e" stroke-width="2" fill="none"></path></g></g><mask></mask><g stroke-linecap="round" transform="translate(1426.2037907754425 1849.7749698747866) rotate(0 184.95760782803848 101.22385833630722)"><path d="M185 0 C226.67 23.75, 269.57 47.85, 369.92 102 M185 0 C234.18 28.45, 284.96 55.69, 369.92 102 M369.92 102 C300.06 138.51, 230.79 176.96, 185 202.45 M369.92 102 C309.07 134.25, 248.29 168.48, 185 202.45 M185 202.45 C113.55 163.83, 45.76 126.49, 0 102 M185 202.45 C125.57 172.05, 67.49 140.76, 0 102 M0 102 C53.28 71.89, 106.37 43.68, 185 0 M0 102 C42.94 77.89, 85.74 53.47, 185 0" stroke="#1e1e1e" stroke-width="2" fill="none"></path></g><g transform="translate(1526.8075946894617 1929.2868990429401) rotate(0 84.37499999999997 21.600000000000023)"><text x="84.375" y="0" font-family="Cascadia, Segoe UI Emoji" font-size="36px" fill="#1e1e1e" text-anchor="middle" style="white-space: pre;" direction="ltr" dominant-baseline="text-before-edge">CADASTRO</text></g><g stroke-linecap="round" transform="translate(1430.5592151577775 2241.2378972158976) rotate(0 322.1825594904965 96.47274380223905)"><path d="M32 0 C181.89 -1.29, 332.55 -0.07, 612.37 0 M32 0 C156.77 0, 281.45 -0.21, 612.37 0 M612.37 0 C634.77 -0.33, 645.07 10.08, 644.37 32 M612.37 0 C635.48 0.59, 645.56 11.31, 644.37 32 M644.37 32 C644.63 73.53, 642.28 116.59, 644.37 160.95 M644.37 32 C645.03 70.24, 643.67 109.2, 644.37 160.95 M644.37 160.95 C643.57 182.55, 634.52 193.18, 612.37 192.95 M644.37 160.95 C642.85 180.76, 635.93 192.06, 612.37 192.95 M612.37 192.95 C420.12 190.76, 229.37 191.41, 32 192.95 M612.37 192.95 C447.65 193.1, 282.56 193.61, 32 192.95 M32 192.95 C11.7 193.69, 1.28 181.01, 0 160.95 M32 192.95 C9.84 191.1, 0.27 180.12, 0 160.95 M0 160.95 C-0.59 115.45, -1.8 68.15, 0 32 M0 160.95 C-1.92 109.27, -0.2 58.55, 0 32 M0 32 C-1.9 12.51, 10.85 -1.42, 32 0 M0 32 C1.69 10.5, 12.4 1.74, 32 0" stroke="#1e1e1e" stroke-width="2" fill="none"></path></g><g transform="translate(1678.913649648274 2316.110641018137) rotate(0 73.828125 21.600000000000023)"><text x="73.828125" y="0" font-family="Cascadia, Segoe UI Emoji" font-size="36px" fill="#1e1e1e" text-anchor="middle" style="white-space: pre;" direction="ltr" dominant-baseline="text-before-edge">CLIENTE</text></g><g stroke-linecap="round"><g transform="translate(1610.0244346496027 2055.596088022788) rotate(0 25.529393543820447 88.28157121278377)"><path d="M0.76 -0.35 C9.48 29.06, 42.99 147.25, 51.17 176.87 M-0.31 -1.58 C8.38 27.42, 41.54 145.4, 50.28 174.91" stroke="#1e1e1e" stroke-width="2" fill="none"></path></g></g><mask></mask><g stroke-linecap="round" transform="translate(789.8345770749825 2201.1926073357236) rotate(0 136.51803368241372 52.78697302386661)"><path d="M87.49 3.03 C101.28 0.02, 119.08 -0.28, 135.31 -0.33 C151.53 -0.38, 169.28 0.46, 184.83 2.72 C200.38 4.98, 216.3 8.72, 228.63 13.22 C240.95 17.73, 251.43 24.12, 258.81 29.75 C266.18 35.38, 271.28 40.72, 272.89 47 C274.5 53.29, 272.86 61.26, 268.47 67.46 C264.08 73.65, 256.37 78.99, 246.55 84.16 C236.73 89.33, 223.64 95.04, 209.56 98.47 C195.47 101.91, 178.28 103.83, 162.03 104.77 C145.78 105.71, 128.15 105.11, 112.06 104.11 C95.97 103.12, 79.65 101.86, 65.49 98.79 C51.34 95.72, 37.23 91.05, 27.15 85.69 C17.08 80.33, 9.61 73, 5.05 66.62 C0.49 60.25, -1.57 53.52, -0.19 47.46 C1.19 41.39, 5.83 35.78, 13.34 30.23 C20.84 24.68, 31.56 18.74, 44.85 14.18 C58.15 9.63, 83.6 4.74, 93.11 2.89 C102.61 1.03, 100.97 2.39, 101.9 3.06 M88.8 2.76 C103.06 -0.37, 123.33 -1.2, 139.64 -1.01 C155.95 -0.82, 171.8 1.32, 186.67 3.87 C201.54 6.42, 216.88 10.12, 228.87 14.27 C240.85 18.41, 251.16 22.89, 258.58 28.74 C266.01 34.58, 271.79 42.95, 273.42 49.34 C275.05 55.73, 273.24 61.16, 268.36 67.09 C263.49 73.02, 254.26 79.9, 244.16 84.9 C234.07 89.91, 221.97 94.03, 207.82 97.12 C193.67 100.21, 175.68 102.41, 159.26 103.44 C142.85 104.48, 125.37 104.28, 109.31 103.33 C93.26 102.38, 76.5 101.08, 62.91 97.73 C49.32 94.39, 37.65 88.6, 27.79 83.25 C17.94 77.9, 8.3 71.56, 3.8 65.64 C-0.71 59.71, -1.32 54.03, 0.76 47.69 C2.84 41.35, 8.87 33.25, 16.27 27.58 C23.67 21.9, 33.22 17.45, 45.17 13.62 C57.12 9.8, 80.24 6.4, 87.95 4.62 C95.66 2.84, 90.38 2.38, 91.43 2.96" stroke="#1e1e1e" stroke-width="2" fill="none"></path></g><g transform="translate(884.1322833863079 2232.5535537761025) rotate(0 42.1875 21.600000000000023)"><text x="42.1875" y="0" font-family="Cascadia, Segoe UI Emoji" font-size="36px" fill="#1e1e1e" text-anchor="middle" style="white-space: pre;" direction="ltr" dominant-baseline="text-before-edge">NOME</text></g><g stroke-linecap="round" transform="translate(742.508325398413 2361.373766856422) rotate(0 151.07995727520438 41.86553032927361)"><path d="M142.72 0.17 C159.67 -0.48, 180.17 1.42, 197.43 3.01 C214.69 4.6, 232.2 6.67, 246.26 9.72 C260.32 12.77, 272.69 17.11, 281.77 21.29 C290.86 25.46, 297.84 29.72, 300.76 34.79 C303.69 39.86, 303.35 46.62, 299.31 51.7 C295.27 56.78, 286.93 61.07, 276.53 65.26 C266.13 69.45, 251.78 73.84, 236.92 76.85 C222.06 79.86, 205.04 82.24, 187.37 83.32 C169.7 84.4, 148.94 84.13, 130.89 83.32 C112.83 82.51, 94.96 80.78, 79.03 78.47 C63.11 76.17, 47.22 73.38, 35.35 69.51 C23.48 65.64, 13.63 60.08, 7.8 55.26 C1.96 50.44, -0.34 45.59, 0.36 40.58 C1.06 35.57, 4.91 30.04, 11.98 25.19 C19.05 20.34, 29.82 15.12, 42.79 11.49 C55.75 7.87, 71.49 5.3, 89.76 3.42 C108.04 1.53, 140.79 0.68, 152.44 0.18 C164.08 -0.33, 159.71 -0.25, 159.63 0.38 M174.76 1.25 C192.08 1.42, 210.67 2.84, 226.6 5.12 C242.53 7.4, 259.04 10.97, 270.34 14.93 C281.64 18.88, 289.07 23.8, 294.41 28.85 C299.76 33.9, 303.44 39.97, 302.39 45.24 C301.34 50.51, 296.19 56.12, 288.11 60.47 C280.02 64.82, 267.08 67.76, 253.89 71.33 C240.71 74.9, 225.63 79.64, 208.99 81.89 C192.35 84.15, 172.22 85.13, 154.06 84.87 C135.89 84.62, 116.99 82.51, 100 80.36 C83 78.22, 65.98 75.14, 52.09 72.02 C38.19 68.89, 25.27 65.61, 16.62 61.61 C7.97 57.61, 2.17 53.19, 0.17 48.01 C-1.82 42.83, -0.34 35.73, 4.64 30.54 C9.62 25.35, 19.11 21.07, 30.06 16.86 C41 12.65, 55.37 7.82, 70.31 5.27 C85.26 2.72, 102.21 2.2, 119.74 1.57 C137.27 0.94, 166.46 1.71, 175.49 1.47 C184.53 1.24, 174.49 -0.23, 173.95 0.17" stroke="#1e1e1e" stroke-width="2" fill="none"></path></g><g transform="translate(862.1179953829466 2381.5358967918955) rotate(0 31.640625 21.600000000000023)"><text x="31.640625" y="0" font-family="Cascadia, Segoe UI Emoji" font-size="36px" fill="#1e1e1e" text-anchor="middle" style="white-space: pre;" direction="ltr" dominant-baseline="text-before-edge">CPF</text></g><g stroke-linecap="round" transform="translate(953.656217493879 2689.017047694215) rotate(0 140.15851458061115 61.888175269360886)"><path d="M170.41 1.03 C186.42 1.54, 202.92 6.07, 216.87 10.35 C230.82 14.64, 244.31 20.66, 254.13 26.73 C263.95 32.81, 271.69 39.77, 275.79 46.81 C279.89 53.84, 280.76 61.57, 278.71 68.94 C276.67 76.3, 271.35 84.29, 263.53 91.02 C255.71 97.74, 244.75 104.44, 231.78 109.29 C218.81 114.14, 201.87 117.88, 185.71 120.14 C169.54 122.4, 151.58 123, 134.8 122.83 C118.02 122.66, 100.32 121.97, 85.02 119.12 C69.73 116.26, 54.98 110.96, 43.03 105.7 C31.08 100.45, 20.4 94.17, 13.31 87.58 C6.23 81, 1.57 73.71, 0.51 66.2 C-0.55 58.68, 1.79 49.71, 6.97 42.51 C12.16 35.31, 21.09 28.64, 31.62 23 C42.14 17.36, 55.65 12.33, 70.14 8.69 C84.63 5.04, 100.62 2.17, 118.57 1.13 C136.51 0.1, 166.92 2.06, 177.8 2.46 C188.69 2.86, 184.37 2.44, 183.87 3.54 M122.35 0.04 C138.05 -1.82, 157.68 1.28, 174.28 2.9 C190.88 4.52, 208.24 5.44, 221.94 9.76 C235.65 14.08, 247.42 22.15, 256.52 28.8 C265.62 35.46, 272.6 42.66, 276.54 49.67 C280.48 56.69, 282.64 63.69, 280.15 70.89 C277.66 78.09, 269.98 86.43, 261.61 92.87 C253.23 99.31, 242.91 104.62, 229.9 109.51 C216.9 114.39, 199.94 120.06, 183.58 122.17 C167.21 124.28, 148.44 122.6, 131.71 122.18 C114.99 121.76, 98.43 122.57, 83.24 119.66 C68.05 116.74, 52.31 110.48, 40.59 104.69 C28.87 98.9, 19.52 91.62, 12.9 84.9 C6.28 78.17, 1.8 71.51, 0.86 64.32 C-0.07 57.13, 1.68 48.73, 7.29 41.73 C12.9 34.74, 23.8 28.13, 34.55 22.36 C45.29 16.58, 57.03 10.6, 71.76 7.11 C86.5 3.61, 114.45 2.33, 122.94 1.38 C131.44 0.42, 122.6 0.29, 122.71 1.35" stroke="#1e1e1e" stroke-width="2" fill="none"></path></g><g transform="translate(1040.9733209735064 2729.543674555349) rotate(0 52.734375 21.600000000000023)"><text x="52.734375" y="0" font-family="Cascadia, Segoe UI Emoji" font-size="36px" fill="#1e1e1e" text-anchor="middle" style="white-space: pre;" direction="ltr" dominant-baseline="text-before-edge">EMAIL</text></g><g stroke-linecap="round" transform="translate(778.9131343803897 2485.1501173951438) rotate(0 211.14789209546666 61.888175269360886)"><path d="M222.95 0.38 C243.65 -0.34, 265.51 1.48, 285.77 3.8 C306.02 6.13, 327.37 10.32, 344.46 14.33 C361.55 18.35, 376.58 22.51, 388.31 27.88 C400.04 33.25, 409.28 40.22, 414.86 46.55 C420.45 52.88, 423.02 59.78, 421.81 65.86 C420.6 71.94, 415.41 77.3, 407.61 83.03 C399.8 88.76, 388.39 95.26, 374.99 100.24 C361.59 105.22, 345.51 109.45, 327.2 112.9 C308.89 116.35, 286.13 119.26, 265.13 120.93 C244.14 122.61, 222.69 123.2, 201.22 122.96 C179.75 122.72, 156.6 121.81, 136.29 119.49 C115.97 117.16, 96.33 113.08, 79.33 109.02 C62.33 104.96, 46.19 100.22, 34.28 95.12 C22.38 90.01, 13.49 84.33, 7.9 78.38 C2.31 72.44, -0.16 66.03, 0.73 59.43 C1.62 52.84, 5.5 44.74, 13.25 38.82 C20.99 32.9, 33.39 28.57, 47.21 23.92 C61.04 19.26, 78.19 14.61, 96.21 10.88 C114.23 7.15, 132.53 3.41, 155.36 1.53 C178.18 -0.35, 218.53 -0.54, 233.19 -0.39 C247.84 -0.25, 243.66 1.23, 243.29 2.4 M120.74 6.61 C137.84 2.91, 161.55 1.06, 182.68 0.18 C203.81 -0.71, 225.89 0.12, 247.51 1.29 C269.13 2.46, 292.94 4.44, 312.39 7.21 C331.83 9.98, 349.13 13.5, 364.18 17.91 C379.23 22.32, 393.34 27.59, 402.71 33.67 C412.07 39.75, 417.63 47.62, 420.38 54.38 C423.14 61.15, 423.27 68.3, 419.23 74.25 C415.2 80.2, 406.6 84.94, 396.19 90.09 C385.78 95.24, 372.3 100.77, 356.75 105.15 C341.19 109.54, 322.28 113.21, 302.87 116.38 C283.46 119.55, 261.58 123.13, 240.27 124.16 C218.96 125.2, 196.46 124.1, 175.01 122.58 C153.55 121.05, 131.01 118.06, 111.55 115.02 C92.09 111.98, 73.1 108.94, 58.25 104.33 C43.4 99.72, 31.97 93.26, 22.42 87.35 C12.87 81.44, 4.25 75.07, 0.94 68.88 C-2.37 62.68, -1.25 56.01, 2.57 50.18 C6.38 44.35, 13.31 39.18, 23.85 33.88 C34.4 28.59, 49.92 23.07, 65.84 18.41 C81.77 13.75, 110.24 7.92, 119.4 5.93 C128.56 3.94, 119.47 5.59, 120.81 6.47" stroke="#1e1e1e" stroke-width="2" fill="none"></path></g><g transform="translate(905.8819201419064 2525.6767442562777) rotate(0 84.375 21.600000000000023)"><text x="84.375" y="0" font-family="Cascadia, Segoe UI Emoji" font-size="36px" fill="#1e1e1e" text-anchor="middle" style="white-space: pre;" direction="ltr" dominant-baseline="text-before-edge">TELEFONE</text></g><g stroke-linecap="round" transform="translate(1390.513925277603 2703.5789712870055) rotate(0 147.43947637700694 50.966732574767775)"><path d="M211.44 5.45 C227.41 7.32, 242.63 12.01, 254.74 16.56 C266.85 21.11, 277.25 27.03, 284.08 32.74 C290.91 38.45, 295.61 44.77, 295.73 50.82 C295.85 56.88, 291.33 63.22, 284.8 69.04 C278.26 74.87, 268.28 81.07, 256.51 85.76 C244.74 90.46, 229.97 94.48, 214.16 97.23 C198.35 99.98, 179.21 101.82, 161.65 102.25 C144.09 102.69, 125.82 101.61, 108.81 99.85 C91.8 98.1, 73.87 95.43, 59.57 91.73 C45.28 88.03, 32.35 82.66, 23.05 77.66 C13.75 72.66, 7.09 67.75, 3.75 61.74 C0.4 55.72, 0 47.8, 2.99 41.56 C5.97 35.32, 12.44 29.59, 21.65 24.28 C30.85 18.97, 44.12 13.36, 58.23 9.7 C72.33 6.04, 89.46 3.85, 106.3 2.33 C123.14 0.81, 140.84 0, 159.26 0.57 C177.68 1.14, 206.78 4.69, 216.82 5.73 C226.85 6.78, 220.75 6.04, 219.47 6.83 M110.23 2.5 C125.88 0.16, 146.25 -1.56, 164.06 -0.88 C181.87 -0.2, 201.52 3.33, 217.09 6.58 C232.67 9.83, 245.84 14.18, 257.51 18.63 C269.18 23.09, 280.99 27.79, 287.13 33.31 C293.26 38.84, 294.65 45.7, 294.31 51.78 C293.97 57.86, 291.58 64.15, 285.09 69.79 C278.6 75.43, 267.98 80.99, 255.38 85.62 C242.77 90.25, 225.61 94.69, 209.46 97.58 C193.3 100.47, 175.83 102.83, 158.47 102.94 C141.11 103.05, 122.59 100.39, 105.28 98.24 C87.96 96.1, 68.54 93.59, 54.59 90.07 C40.64 86.54, 30.16 82.01, 21.6 77.1 C13.04 72.19, 6.48 66.57, 3.21 60.62 C-0.05 54.67, -1.62 47.5, 2.02 41.4 C5.66 35.3, 15.32 29.14, 25.06 24.01 C34.79 18.88, 46.31 14.23, 60.44 10.61 C74.58 7, 101.18 3.87, 109.88 2.32 C118.57 0.77, 112.1 0.42, 112.6 1.31" stroke="#1e1e1e" stroke-width="2" fill="none"></path></g><g transform="translate(1464.3698230938346 2732.906781643234) rotate(0 73.828125 21.600000000000023)"><text x="73.828125" y="0" font-family="Cascadia, Segoe UI Emoji" font-size="36px" fill="#1e1e1e" text-anchor="middle" style="white-space: pre;" direction="ltr" dominant-baseline="text-before-edge">ALERGIA</text></g><g stroke-linecap="round"><g transform="translate(1059.2301635416125 2237.5974163177) rotate(0 183.84428535898383 29.123847185581553)"><path d="M0 0 C61.22 9.85, 306.74 49.35, 367.92 58.99 M-1.46 -1.05 C59.57 8.48, 305.85 47.25, 367.09 57.26" stroke="#1e1e1e" stroke-width="2" fill="none"></path></g></g><mask></mask><g stroke-linecap="round"><g transform="translate(1044.6682399488213 2394.138094940201) rotate(0 198.40620895177472 -5.460721347296499)"><path d="M-0.16 0.51 C66 -1.44, 329.65 -9.8, 395.82 -11.64 M-1.71 -0.26 C64.92 -2.09, 331.71 -8.41, 398.01 -10.48" stroke="#1e1e1e" stroke-width="2" fill="none"></path></g></g><mask></mask><g stroke-linecap="round"><g transform="translate(1190.2874758767293 2528.835888173516) rotate(0 123.77635053872177 -72.809617963954)"><path d="M-0.54 0.03 C40.67 -24.02, 207.03 -120.97, 248.3 -145.37 M1.38 -0.99 C42.4 -25.34, 206.96 -123.29, 247.75 -147.37" stroke="#1e1e1e" stroke-width="2" fill="none"></path></g></g><mask></mask><g stroke-linecap="round"><g transform="translate(1193.9279567749272 2699.938490388808) rotate(0 123.77635053872177 -138.33827413151255)"><path d="M-0.45 0.86 C40.9 -45.25, 205.84 -231.08, 247.32 -277.51 M1.51 0.27 C42.76 -45.64, 205.15 -230.2, 246.26 -276.4" stroke="#1e1e1e" stroke-width="2" fill="none"></path></g></g><mask></mask><g stroke-linecap="round"><g transform="translate(1587.0998937802788 2703.5789712870055) rotate(0 54.60721347296544 -131.05731233511722)"><path d="M0.82 0.4 C19.19 -43.52, 91.26 -218.92, 109.19 -262.81 M-0.2 -0.44 C18.09 -44.28, 89.71 -218.03, 108.23 -261.63" stroke="#1e1e1e" stroke-width="2" fill="none"></path></g></g><mask></mask><g stroke-linecap="round" transform="translate(415.53227379972896 966.4206940793892) rotate(0 220.39658007945718 58.85590490758227)"><path d="M268.92 0.66 C289.85 0.95, 312.85 5.59, 331.6 8.54 C350.34 11.49, 366.69 14.11, 381.41 18.35 C396.12 22.59, 410.47 28.78, 419.89 33.98 C429.31 39.18, 435 44.11, 437.93 49.58 C440.86 55.05, 440.78 60.9, 437.48 66.8 C434.17 72.7, 427.28 79.71, 418.1 84.98 C408.92 90.26, 397.03 94.16, 382.38 98.44 C367.72 102.71, 348.95 107.79, 330.17 110.62 C311.4 113.44, 290.81 114.29, 269.72 115.37 C248.63 116.45, 225.29 117.34, 203.65 117.09 C182.01 116.84, 159.9 115.78, 139.89 113.87 C119.88 111.96, 100.58 109.41, 83.59 105.61 C66.6 101.82, 50.17 96.03, 37.96 91.09 C25.74 86.15, 16.45 81.52, 10.29 75.96 C4.13 70.41, 1.08 63.44, 0.98 57.77 C0.89 52.09, 3.42 47.1, 9.72 41.9 C16.03 36.69, 26.49 31.42, 38.82 26.55 C51.15 21.69, 66.74 16.62, 83.69 12.71 C100.63 8.79, 120.29 5.17, 140.49 3.06 C160.69 0.95, 182.04 0.33, 204.88 0.04 C227.71 -0.24, 264.38 0.81, 277.48 1.34 C290.59 1.86, 284.33 2, 283.5 3.19 M202.33 0.13 C222.32 -1.34, 245.28 -0.13, 266.36 0.97 C287.44 2.07, 309.74 3.77, 328.84 6.73 C347.93 9.69, 366.14 14.12, 380.94 18.71 C395.73 23.29, 408.08 29.21, 417.6 34.25 C427.11 39.29, 434.52 43.59, 438.05 48.95 C441.58 54.31, 441.82 60.82, 438.77 66.39 C435.73 71.97, 429.04 77.17, 419.8 82.39 C410.56 87.6, 397.67 93.38, 383.33 97.69 C368.98 102.01, 352.14 105.39, 333.75 108.29 C315.36 111.19, 294.24 113.62, 272.99 115.09 C251.74 116.57, 227.89 117.11, 206.25 117.14 C184.61 117.17, 163.29 117.25, 143.14 115.26 C123 113.28, 102.59 108.89, 85.36 105.22 C68.13 101.55, 52.48 97.93, 39.77 93.24 C27.07 88.56, 15.86 82.88, 9.12 77.11 C2.38 71.35, -0.88 64.39, -0.67 58.65 C-0.46 52.92, 3.95 48.21, 10.37 42.71 C16.79 37.2, 25.88 30.7, 37.86 25.62 C49.85 20.54, 65.45 15.78, 82.26 12.23 C99.08 8.68, 119.01 6.41, 138.73 4.31 C158.46 2.2, 190.02 0.08, 200.63 -0.4 C211.24 -0.88, 201.99 0.18, 202.4 1.4" stroke="#1e1e1e" stroke-width="2" fill="none"></path></g><g transform="translate(593.8974375546779 1003.5591895139495) rotate(0 42.1875 21.599999999999994)"><text x="42.1875" y="0" font-family="Cascadia, Segoe UI Emoji" font-size="36px" fill="#1e1e1e" text-anchor="middle" style="white-space: pre;" direction="ltr" dominant-baseline="text-before-edge">NOME</text></g><g stroke-linecap="round"><g transform="translate(645.9468802464341 963.9161874875772) rotate(0 -18.78379943859011 -42.57661206080422)"><path d="M0.14 0.09 C-6.3 -14.35, -31.47 -72.15, -37.7 -86.17 M-1.25 -0.91 C-7.93 -15.27, -32.61 -71.02, -38.72 -85.17" stroke="#1e1e1e" stroke-width="2" fill="none"></path></g></g><mask></mask><g stroke-linecap="round" transform="translate(117.49598937409928 891.2854963250288) rotate(0 113.95504992744662 61.36041149939433)"><path d="M96.01 1.47 C109.56 -0.82, 126.27 -0.13, 140.19 1.41 C154.11 2.94, 167.81 6.04, 179.54 10.66 C191.26 15.28, 202.8 22.51, 210.55 29.11 C218.31 35.71, 223.81 42.6, 226.06 50.25 C228.31 57.9, 227.21 67.28, 224.04 75.01 C220.88 82.74, 215.34 90.35, 207.07 96.63 C198.79 102.91, 186.8 108.47, 174.38 112.69 C161.96 116.92, 146.8 120.72, 132.55 121.98 C118.29 123.25, 103.04 122.11, 88.84 120.28 C74.63 118.45, 59.13 115.29, 47.31 111 C35.49 106.71, 25.69 100.96, 17.91 94.54 C10.12 88.11, 3.12 80.13, 0.6 72.46 C-1.93 64.79, -0.8 56.18, 2.76 48.53 C6.31 40.88, 13.4 33.1, 21.91 26.56 C30.43 20.02, 39.46 13.8, 53.86 9.29 C68.25 4.79, 96.81 0.91, 108.29 -0.5 C119.76 -1.91, 122.61 -0.18, 122.72 0.83 M73.62 5.48 C85.8 1.6, 101.5 -1.11, 116.05 -1.05 C130.61 -0.99, 147.7 2.6, 160.98 5.82 C174.25 9.05, 186.04 12.54, 195.7 18.32 C205.37 24.11, 213.43 33.02, 218.95 40.54 C224.47 48.05, 228.98 55.77, 228.8 63.39 C228.62 71.01, 223.74 78.97, 217.87 86.25 C212 93.54, 204.13 101.94, 193.57 107.1 C183.01 112.26, 168.44 114.86, 154.52 117.23 C140.59 119.61, 124.47 121.39, 110.02 121.35 C95.58 121.31, 80.8 120.17, 67.85 116.98 C54.89 113.8, 42.46 107.61, 32.28 102.25 C22.1 96.89, 11.96 91.99, 6.77 84.84 C1.58 77.7, 0.49 67.35, 1.15 59.38 C1.81 51.42, 4.89 44.17, 10.75 37.07 C16.6 29.96, 25.95 22.5, 36.27 16.77 C46.6 11.03, 66.25 4.68, 72.69 2.64 C79.13 0.59, 74.32 3.24, 74.9 4.5" stroke="#1e1e1e" stroke-width="2" fill="none"></path></g><g transform="translate(157.54452574739685 931.1575447568043) rotate(0 73.828125 21.599999999999994)"><text x="73.828125" y="0" font-family="Cascadia, Segoe UI Emoji" font-size="36px" fill="#1e1e1e" text-anchor="middle" style="white-space: pre;" direction="ltr" dominant-baseline="text-before-edge">CONTATO</text></g><g transform="translate(1067.8026938487947 474.07833459029484) rotate(0 4.877998352050781 22.5)"><text x="0" y="0" font-family="Virgil, Segoe UI Emoji" font-size="36px" fill="#1971c2" text-anchor="start" style="white-space: pre;" direction="ltr" dominant-baseline="text-before-edge">1</text></g><g transform="translate(721.1791705365706 626.5405610095813) rotate(0 8.405998229980469 22.5)"><text x="0" y="0" font-family="Virgil, Segoe UI Emoji" font-size="36px" fill="#1971c2" text-anchor="start" style="white-space: pre;" direction="ltr" dominant-baseline="text-before-edge">n</text></g><g transform="translate(1455.3671168360338 594.7094519074635) rotate(0 4.877998352050781 22.5)"><text x="0" y="0" font-family="Virgil, Segoe UI Emoji" font-size="36px" fill="#1971c2" text-anchor="start" style="white-space: pre;" direction="ltr" dominant-baseline="text-before-edge">1</text></g><g transform="translate(1350.723196075914 811.580186236408) rotate(0 8.405998229980469 22.5)"><text x="0" y="0" font-family="Virgil, Segoe UI Emoji" font-size="36px" fill="#1971c2" text-anchor="start" style="white-space: pre;" direction="ltr" dominant-baseline="text-before-edge">n</text></g><g stroke-linecap="round" transform="translate(2059.1032791485222 238.02419384852897) rotate(0 155.98012340113485 45.75132157388691)"><path d="M95.9 4.39 C110.72 1.9, 132.1 1.21, 150.18 0.69 C168.26 0.18, 187.41 -0.14, 204.39 1.3 C221.37 2.73, 238.2 6.01, 252.07 9.32 C265.94 12.63, 278.09 16.73, 287.58 21.15 C297.07 25.57, 305.29 30.77, 309.01 35.84 C312.73 40.9, 312.44 46.33, 309.91 51.52 C307.38 56.7, 301.89 62.2, 293.83 66.95 C285.77 71.69, 274.68 76.29, 261.57 79.98 C248.45 83.67, 231.64 87.11, 215.12 89.08 C198.61 91.06, 180.15 91.63, 162.47 91.81 C144.8 92, 126.1 91.99, 109.09 90.2 C92.09 88.42, 74.72 84.56, 60.42 81.09 C46.12 77.62, 32.61 73.53, 23.28 69.39 C13.94 65.25, 7.93 61.12, 4.41 56.24 C0.9 51.36, 0.01 45.34, 2.18 40.13 C4.36 34.92, 9.19 29.8, 17.46 24.97 C25.74 20.13, 36.56 14.91, 51.84 11.12 C67.13 7.32, 97.47 3.62, 109.18 2.19 C120.89 0.76, 121.34 1.75, 122.09 2.54 M131.22 1.21 C147.72 -0.25, 169.04 -0.03, 186.9 0.7 C204.75 1.43, 223.15 2.9, 238.37 5.59 C253.58 8.27, 267.13 12.4, 278.2 16.79 C289.26 21.17, 299 26.83, 304.76 31.89 C310.51 36.94, 313.54 41.78, 312.73 47.11 C311.93 52.43, 306.67 59.07, 299.94 63.84 C293.2 68.6, 284.11 71.81, 272.34 75.68 C260.58 79.55, 244.69 84.47, 229.35 87.03 C214.01 89.6, 197.48 90.37, 180.3 91.09 C163.12 91.8, 143.62 92.27, 126.28 91.32 C108.95 90.36, 91.53 88.19, 76.31 85.37 C61.08 82.55, 46.07 78.33, 34.94 74.4 C23.8 70.47, 15.17 66.8, 9.48 61.8 C3.79 56.8, 0.58 49.86, 0.82 44.4 C1.07 38.94, 4.38 33.99, 10.96 29.06 C17.55 24.12, 28.68 18.57, 40.32 14.78 C51.97 11, 65.59 8.91, 80.83 6.34 C96.06 3.77, 122.95 0.32, 131.72 -0.65 C140.49 -1.61, 132.9 -0.5, 133.44 0.57" stroke="#1e1e1e" stroke-width="2" fill="none"></path></g><g transform="translate(2109.8200495624 262.32444568927417) rotate(0 105.46875000000006 21.600000000000023)"><text x="105.46875" y="0" font-family="Cascadia, Segoe UI Emoji" font-size="36px" fill="#1e1e1e" text-anchor="middle" style="white-space: pre;" direction="ltr" dominant-baseline="text-before-edge">QUANTIDADE</text></g><g stroke-linecap="round"><g transform="translate(2142.3772053046478 327.79162504107035) rotate(0 -42.46419972874435 110.7102350070835)"><path d="M-0.24 -1.14 C-14.46 35.51, -70.26 183.9, -84.41 221.09 M-1.82 0.87 C-16.24 38.21, -71.05 185.94, -85.09 222.45" stroke="#1e1e1e" stroke-width="2" fill="none"></path></g></g><mask></mask><g transform="translate(1766.5191251733713 1203.5549623940599) rotate(0 4.877998352050781 22.5)"><text x="0" y="0" font-family="Virgil, Segoe UI Emoji" font-size="36px" fill="#1971c2" text-anchor="start" style="white-space: pre;" direction="ltr" dominant-baseline="text-before-edge">1</text></g><g transform="translate(1759.7980814971038 958.9392094964298) rotate(0 8.405998229980469 22.5)"><text x="0" y="0" font-family="Virgil, Segoe UI Emoji" font-size="36px" fill="#1971c2" text-anchor="start" style="white-space: pre;" direction="ltr" dominant-baseline="text-before-edge">n</text></g><g transform="translate(1384.6478003116958 1471.700285532871) rotate(0 4.877998352050781 22.5)"><text x="0" y="0" font-family="Virgil, Segoe UI Emoji" font-size="36px" fill="#1971c2" text-anchor="start" style="white-space: pre;" direction="ltr" dominant-baseline="text-before-edge">1</text></g><g transform="translate(1258.832693248549 1678.7098382138897) rotate(0 11.393997192382812 22.5)"><text x="0" y="0" font-family="Virgil, Segoe UI Emoji" font-size="36px" fill="#1971c2" text-anchor="start" style="white-space: pre;" direction="ltr" dominant-baseline="text-before-edge">m</text></g><g transform="translate(1582.6608710756748 2050.7328472241297) rotate(0 8.405998229980469 22.5)"><text x="0" y="0" font-family="Virgil, Segoe UI Emoji" font-size="36px" fill="#1971c2" text-anchor="start" style="white-space: pre;" direction="ltr" dominant-baseline="text-before-edge">n</text></g><g transform="translate(1581.6890080154867 1788.993172761379) rotate(0 4.877998352050781 22.5)"><text x="0" y="0" font-family="Virgil, Segoe UI Emoji" font-size="36px" fill="#1971c2" text-anchor="start" style="white-space: pre;" direction="ltr" dominant-baseline="text-before-edge">1</text></g><g stroke-linecap="round"><g transform="translate(334.5846880100539 926.3974102901561) rotate(0 26.742759635352854 -23.927732305315658)"><path d="M0.26 0.82 C9.12 -7.06, 44.58 -39.8, 53.45 -47.73 M-1.06 0.21 C7.61 -7.42, 43.52 -38, 52.49 -46.13" stroke="#1e1e1e" stroke-width="2" fill="none"></path></g></g><mask></mask><g transform="translate(1531.4081961987874 226.98547018635713) rotate(0 8.405998229980469 22.5)"><text x="0" y="0" font-family="Virgil, Segoe UI Emoji" font-size="36px" fill="#1971c2" text-anchor="start" style="white-space: pre;" direction="ltr" dominant-baseline="text-before-edge">n</text></g><g transform="translate(1287.9486736573122 384.6982426503321) rotate(0 11.393997192382812 22.5)"><text x="0" y="0" font-family="Virgil, Segoe UI Emoji" font-size="36px" fill="#1971c2" text-anchor="start" style="white-space: pre;" direction="ltr" dominant-baseline="text-before-edge">m</text></g><g stroke-linecap="round" transform="translate(1694.9386092826903 157.25716321888854) rotate(0 139.8727968550287 40.91936056392592)"><path d="M145.56 -0.55 C161.56 -1.18, 179.69 0.34, 195.32 2.51 C210.95 4.67, 227.12 8.93, 239.34 12.47 C251.56 16.01, 261.98 19.32, 268.64 23.74 C275.3 28.16, 278.5 33.96, 279.28 39 C280.07 44.04, 278.63 49.43, 273.34 53.98 C268.05 58.52, 258.5 62.57, 247.54 66.27 C236.59 69.98, 222.16 73.65, 207.59 76.22 C193.01 78.78, 176.64 80.91, 160.12 81.66 C143.59 82.41, 125.12 81.92, 108.46 80.71 C91.8 79.49, 74.15 77.3, 60.15 74.38 C46.15 71.45, 33.82 67.3, 24.45 63.14 C15.08 58.97, 7.63 53.94, 3.91 49.38 C0.2 44.82, -0.17 40.41, 2.18 35.78 C4.53 31.14, 10.09 26.05, 18 21.58 C25.92 17.1, 36.72 12.33, 49.67 8.93 C62.62 5.53, 77.53 2.74, 95.7 1.16 C113.87 -0.43, 146.07 -0.7, 158.68 -0.55 C171.29 -0.41, 171.7 1.17, 171.37 2.01 M193.35 4.02 C209.06 5.19, 224.2 6.95, 236.2 10.15 C248.19 13.36, 257.98 18.75, 265.3 23.26 C272.62 27.78, 278.61 32.29, 280.11 37.24 C281.6 42.19, 278.99 47.97, 274.26 52.96 C269.53 57.95, 262.02 63.26, 251.72 67.18 C241.42 71.1, 226.93 74.15, 212.46 76.47 C198 78.79, 181.82 80.54, 164.95 81.12 C148.07 81.71, 127.89 81.14, 111.21 79.99 C94.54 78.84, 78.91 76.73, 64.89 74.23 C50.86 71.72, 37.16 68.86, 27.05 64.95 C16.95 61.05, 8.82 55.39, 4.25 50.8 C-0.33 46.21, -2.4 42.07, -0.39 37.39 C1.63 32.71, 8.53 27.36, 16.33 22.73 C24.12 18.11, 34.16 12.91, 46.39 9.62 C58.62 6.33, 74.02 4.36, 89.72 3 C105.42 1.64, 123.49 1.34, 140.57 1.45 C157.65 1.55, 183.76 3.1, 192.2 3.65 C200.64 4.19, 191.86 3.97, 191.21 4.7" stroke="#1e1e1e" stroke-width="2" fill="none"></path></g><g transform="translate(1744.8712467279997 177.5421664462449) rotate(0 90.03515625 20.700000000000045)"><text x="90.03515625" y="0" font-family="Helvetica, Segoe UI Emoji" font-size="36px" fill="#1e1e1e" text-anchor="middle" style="white-space: pre;" direction="ltr" dominant-baseline="text-before-edge">ALERGIAS</text></g><g stroke-linecap="round"><g transform="translate(1874.3616452484512 242.14548131021638) rotate(0 66.56015850342737 158.20095644292894)"><path d="M0.43 -0.78 C22.85 52.07, 111.95 263.72, 134.2 316.63 M-0.8 1.43 C21.58 53.93, 111.42 261.85, 133.82 314.62" stroke="#1e1e1e" stroke-width="2" fill="none"></path></g></g><mask></mask><g stroke-linecap="round" transform="translate(2209.7453138607966 1411.2456745287386) rotate(0 224.57474290146433 107.84015045515338)"><path d="M281.25 27 C319.26 45.42, 357.26 60.84, 392.9 81 M281.25 27 C312.15 40.87, 342.98 57.22, 392.9 81 M392.9 81 C447.44 106.93, 448.09 106.94, 392.9 135 M392.9 81 C448.86 108.27, 451.39 108.43, 392.9 135 M392.9 135 C368.72 147.27, 343.71 158.82, 281.25 188.68 M392.9 135 C363.73 149.08, 334.73 164.16, 281.25 188.68 M281.25 188.68 C223.95 215.6, 225.94 215.8, 168.75 188.68 M281.25 188.68 C227.11 214.83, 224.05 215.81, 168.75 188.68 M168.75 188.68 C137.61 173.25, 103.84 158.89, 56.25 135 M168.75 188.68 C140.03 174.02, 112.47 160.36, 56.25 135 M56.25 135 C1.36 108.19, -1.94 106.73, 56.25 81 M56.25 135 C1.23 106.88, -2.19 108.27, 56.25 81 M56.25 81 C98.86 60.01, 140.86 38.93, 168.75 27 M56.25 81 C84.39 67.2, 113.99 53.85, 168.75 27 M168.75 27 C226.56 0.66, 224.63 1.67, 281.25 27 M168.75 27 C222.77 1.67, 223.29 0.86, 281.25 27" stroke="#1e1e1e" stroke-width="2" fill="none"></path></g><g transform="translate(2381.798310311529 1497.5657497563152) rotate(0 52.734375 21.599999999999994)"><text x="52.734375" y="0" font-family="Cascadia, Segoe UI Emoji" font-size="36px" fill="#1e1e1e" text-anchor="middle" style="white-space: pre;" direction="ltr" dominant-baseline="text-before-edge">LEVOU</text></g><g stroke-linecap="round"><g transform="translate(2031.9226819148316 656.6789374857009) rotate(0 187.43179400259942 376.6068894113696)"><path d="M-0.02 -0.8 C62.67 124.49, 313.17 626.69, 375.83 752.23 M-1.5 1.4 C61.15 126.77, 312.52 627.92, 375.38 753.25" stroke="#1e1e1e" stroke-width="2" fill="none"></path></g></g><mask></mask><g stroke-linecap="round"><g transform="translate(2396.1194720964677 1616.2064695382778) rotate(0 -208.92322897803803 304.90377269867804)"><path d="M-0.06 -0.97 C-69.79 100.68, -348.29 507.86, -417.93 609.83 M-1.55 1.13 C-71.48 103, -349.39 510.05, -418.91 611.39" stroke="#1e1e1e" stroke-width="2" fill="none"></path></g></g><mask></mask><g stroke-linecap="round" transform="translate(2729.822017381094 1473.637520157633) rotate(0 221.84243883994077 75.44649001870846)"><path d="M32 0 C118.61 -0.99, 205.55 -2.19, 411.68 0 M32 0 C179.85 -2.32, 327.49 -1.81, 411.68 0 M411.68 0 C432.56 -0.25, 443.7 11.56, 443.68 32 M411.68 0 C431.74 1.13, 445.62 9.99, 443.68 32 M443.68 32 C444.06 56.79, 443.33 85.17, 443.68 118.89 M443.68 32 C443.61 61.09, 443.84 89.94, 443.68 118.89 M443.68 118.89 C444.52 141.52, 434.84 149.14, 411.68 150.89 M443.68 118.89 C442.74 139.11, 434.62 149.76, 411.68 150.89 M411.68 150.89 C287.27 149.6, 161.79 149.66, 32 150.89 M411.68 150.89 C260.65 150.65, 109.64 150.98, 32 150.89 M32 150.89 C9.94 152.48, -1.3 140.24, 0 118.89 M32 150.89 C11.67 149.02, 0.48 140.11, 0 118.89 M0 118.89 C-1.75 96.41, -1.06 71.98, 0 32 M0 118.89 C-0.17 86.26, 0.04 55.38, 0 32 M0 32 C0.04 9.53, 12.2 -0.1, 32 0 M0 32 C1.88 10.88, 8.7 0.67, 32 0" stroke="#1e1e1e" stroke-width="2" fill="none"></path></g><g transform="translate(2877.836331221035 1527.4840101763414) rotate(0 73.828125 21.599999999999994)"><text x="73.828125" y="0" font-family="Cascadia, Segoe UI Emoji" font-size="36px" fill="#1e1e1e" text-anchor="middle" style="white-space: pre;" direction="ltr" dominant-baseline="text-before-edge">COMPRAS</text></g><g stroke-linecap="round"><g transform="translate(2639.547198007184 1529.4858073634582) rotate(0 40.64074766631484 1.4744031144785623)"><path d="M1.2 1.07 C14.79 1.82, 67.31 3.15, 80.75 3.42 M0.37 0.59 C13.83 1.06, 66.02 0.99, 79.52 1.54" stroke="#1e1e1e" stroke-width="2" fill="none"></path></g></g><mask></mask><g transform="translate(2392.170409375908 1645.1876417515043) rotate(0 10.546875 21.599999999999994)"><text x="0" y="0" font-family="Cascadia, Segoe UI Emoji" font-size="36px" fill="#1971c2" text-anchor="start" style="white-space: pre;" direction="ltr" dominant-baseline="text-before-edge">1</text></g><g transform="translate(2425.087051944126 1359.7211790247525) rotate(0 10.546875 21.599999999999998)"><text x="0" y="0" font-family="Cascadia, Segoe UI Emoji" font-size="36px" fill="#1971c2" text-anchor="start" style="white-space: pre;" direction="ltr" dominant-baseline="text-before-edge">1</text></g><g transform="translate(2638.5849966991786 1448.760333994593) rotate(0 10.546875 21.599999999999994)"><text x="0" y="0" font-family="Cascadia, Segoe UI Emoji" font-size="36px" fill="#1971c2" text-anchor="start" style="white-space: pre;" direction="ltr" dominant-baseline="text-before-edge">n</text></g><g stroke-linecap="round"><g transform="translate(1615.3409869040631 1836.6533410332495) rotate(0 52.994680319309936 -129.05325372851937)"><path d="M-0.69 -0.02 C16.8 -43.04, 87.57 -215.66, 105.52 -258.52 M1.14 -1.08 C18.38 -43.89, 86.73 -214.2, 104.33 -257.2" stroke="#1e1e1e" stroke-width="2" fill="none"></path></g></g><mask></mask><g stroke-linecap="round"><g transform="translate(946.7816886781097 1690.1686142894023) rotate(0 180.80772858177613 -18.14752892708711)"><path d="M0 0 C119.01 -13.03, 238.32 -23.43, 361.62 -36.3 M0 0 C102.41 -11.38, 204.62 -21.75, 361.62 -36.3" stroke="#1e1e1e" stroke-width="2" fill="none"></path></g></g><mask></mask><g stroke-linecap="round"><g transform="translate(1634.1753437776347 1550.5570762166697) rotate(0 -121.43420196272804 -14.702651394289717)"><path d="M0 0 C-56.29 -8.51, -114.4 -14.67, -242.87 -29.41 M0 0 C-93.05 -11.94, -185.08 -22.81, -242.87 -29.41" stroke="#1e1e1e" stroke-width="2" fill="none"></path></g></g><mask></mask><g stroke-linecap="round" transform="translate(1843.1474198344079 1358.380030447644) rotate(0 82.94779102199027 38)"><path d="M43.11 4.16 C53.35 0.86, 69.42 -0.62, 82.36 -0.66 C95.29 -0.71, 109.27 1.03, 120.73 3.9 C132.2 6.78, 143.83 11.56, 151.12 16.58 C158.41 21.6, 162.9 28.32, 164.47 34.02 C166.04 39.73, 164.82 45.37, 160.54 50.8 C156.26 56.22, 148.33 62.64, 138.8 66.59 C129.28 70.55, 115.84 73.25, 103.38 74.54 C90.91 75.83, 76.34 75.76, 64.01 74.33 C51.68 72.91, 39.2 69.68, 29.41 66.01 C19.62 62.35, 10.24 57.73, 5.3 52.34 C0.35 46.95, -1.73 39.48, -0.28 33.69 C1.18 27.91, 5.73 22.58, 14.03 17.63 C22.33 12.69, 42.64 6.33, 49.5 4.01 C56.37 1.69, 54.59 3.27, 55.21 3.73 M113.41 4.07 C125.29 5.54, 136.69 9.07, 145.21 13.41 C153.73 17.76, 161.48 24.41, 164.53 30.16 C167.58 35.92, 166.71 42.51, 163.51 47.95 C160.32 53.39, 154.31 58.66, 145.37 62.82 C136.43 66.97, 122.03 70.62, 109.86 72.9 C97.68 75.18, 84.72 77.26, 72.3 76.51 C59.88 75.76, 45.74 71.97, 35.35 68.4 C24.95 64.83, 16.02 60.12, 9.94 55.09 C3.87 50.05, -1.04 44.05, -1.12 38.21 C-1.19 32.38, 2.86 25.22, 9.49 20.09 C16.13 14.97, 27.68 11.01, 38.69 7.48 C49.69 3.94, 62.78 -0.47, 75.51 -1.11 C88.24 -1.75, 108.55 2.66, 115.08 3.65 C121.62 4.65, 115.46 4.56, 114.73 4.88" stroke="#1e1e1e" stroke-width="2" fill="none"></path></g><g transform="translate(1904.8485153403042 1374.909972762555) rotate(0 21.09375 21.599999999999998)"><text x="21.09375" y="0" font-family="Cascadia, Segoe UI Emoji" font-size="36px" fill="#1e1e1e" text-anchor="middle" style="white-space: pre;" direction="ltr" dominant-baseline="text-before-edge">ID</text></g><g stroke-linecap="round"><g transform="translate(1834.8526407322086 1496.6263488176278) rotate(0 26.266800490296873 -33.17911640879612)"><path d="M0 0 C11.65 -18.33, 25.5 -33.2, 52.53 -66.36 M0 0 C18.07 -22.95, 35.52 -45.52, 52.53 -66.36" stroke="#1e1e1e" stroke-width="2" fill="none"></path></g></g><mask></mask><g stroke-linecap="round" transform="translate(2838.437928266567 1216.364878906108) rotate(0 90.4075020636867 53.83817538624044)"><path d="M53.12 5.72 C63.69 1.77, 78.99 -1.01, 92.16 -0.93 C105.34 -0.85, 120.54 2.53, 132.19 6.22 C143.84 9.9, 154.27 15.09, 162.05 21.17 C169.84 27.24, 176.32 35, 178.89 42.66 C181.46 50.32, 180.62 59.42, 177.49 67.11 C174.36 74.8, 168.25 82.79, 160.1 88.8 C151.95 94.81, 140.46 100.13, 128.58 103.16 C116.7 106.19, 101.98 107.3, 88.82 106.98 C75.66 106.67, 61.37 104.64, 49.63 101.29 C37.9 97.94, 26.4 93.02, 18.41 86.89 C10.42 80.77, 4.24 72.08, 1.7 64.53 C-0.84 56.97, -0.06 49.06, 3.18 41.56 C6.42 34.05, 11.65 25.95, 21.14 19.49 C30.63 13.04, 52.69 5.49, 60.12 2.81 C67.55 0.13, 65.45 2.4, 65.72 3.41 M58.56 2.82 C69.95 -0.31, 85.76 -0.86, 99.06 0.18 C112.36 1.22, 127.02 5.11, 138.37 9.05 C149.71 12.99, 160.1 17.48, 167.14 23.82 C174.17 30.16, 178.91 39.22, 180.57 47.08 C182.23 54.93, 181.37 63.75, 177.08 70.96 C172.79 78.16, 164.16 84.57, 154.83 90.28 C145.49 95.99, 133.31 102.38, 121.07 105.23 C108.83 108.08, 94.59 108.26, 81.39 107.37 C68.19 106.48, 52.84 103.96, 41.85 99.9 C30.86 95.84, 22.4 89.45, 15.46 83.02 C8.51 76.59, 2.12 68.92, 0.18 61.32 C-1.75 53.71, -0.47 45, 3.84 37.4 C8.16 29.8, 16.63 21.65, 26.07 15.73 C35.52 9.81, 54.89 3.75, 60.51 1.89 C66.14 0.03, 59.31 3.26, 59.83 4.55" stroke="#1e1e1e" stroke-width="2" fill="none"></path></g><g transform="translate(2907.823922550884 1248.533715390027) rotate(0 21.09375 21.599999999999994)"><text x="21.09375" y="0" font-family="Cascadia, Segoe UI Emoji" font-size="36px" fill="#1e1e1e" text-anchor="middle" style="white-space: pre;" direction="ltr" dominant-baseline="text-before-edge">ID</text></g><g stroke-linecap="round" transform="translate(3330.0922091522334 1340.2942637574538) rotate(0 166.59359930836672 68.5)"><path d="M159.59 -0.63 C176.69 -1.92, 198.31 0.1, 215.54 2.3 C232.78 4.5, 248.46 8.15, 263 12.56 C277.55 16.97, 292.12 22.77, 302.81 28.75 C313.5 34.73, 322.08 41.28, 327.14 48.42 C332.19 55.55, 334.1 64.09, 333.14 71.55 C332.19 79.02, 328.07 86.29, 321.39 93.2 C314.7 100.12, 304.62 107.25, 293.05 113.05 C281.49 118.86, 267.58 124.23, 252 128.05 C236.42 131.87, 217.19 134.66, 199.56 135.97 C181.93 137.27, 164.12 136.94, 146.22 135.9 C128.32 134.86, 108.4 132.97, 92.16 129.73 C75.92 126.5, 61.27 121.84, 48.79 116.48 C36.31 111.11, 25.04 104.14, 17.27 97.55 C9.49 90.96, 4.33 84.14, 2.15 76.94 C-0.04 69.75, 0.48 61.64, 4.14 54.38 C7.81 47.11, 15.1 39.71, 24.13 33.37 C33.16 27.02, 44.56 21.11, 58.31 16.32 C72.05 11.53, 87.77 7.38, 106.6 4.62 C125.43 1.86, 158.76 0.12, 171.3 -0.25 C183.84 -0.62, 181.85 1.08, 181.83 2.4 M225.51 4.91 C242.29 5.93, 258.33 9.77, 271.99 14.35 C285.64 18.93, 297.84 25.64, 307.44 32.38 C317.03 39.12, 325.64 47.37, 329.56 54.79 C333.47 62.21, 332.89 69.61, 330.94 76.89 C328.99 84.18, 325.46 92.08, 317.84 98.5 C310.22 104.93, 298 110.1, 285.21 115.44 C272.41 120.78, 256.91 127.09, 241.06 130.52 C225.21 133.95, 207.99 135.01, 190.11 136 C172.22 136.99, 151.52 137.77, 133.75 136.46 C115.99 135.16, 99.16 132.12, 83.5 128.16 C67.85 124.2, 51.81 118.36, 39.82 112.7 C27.83 107.04, 18.04 101.01, 11.57 94.22 C5.1 87.42, 2.02 79.44, 1 71.93 C-0.02 64.42, 0.67 56.35, 5.45 49.16 C10.23 41.96, 19.43 34.76, 29.69 28.76 C39.96 22.77, 52.31 17.5, 67.06 13.18 C81.81 8.86, 100.62 5.16, 118.2 2.85 C135.78 0.53, 154.84 -0.85, 172.55 -0.69 C190.26 -0.54, 215.87 2.93, 224.46 3.78 C233.05 4.63, 225.23 3.03, 224.1 4.41" stroke="#1e1e1e" stroke-width="2" fill="none"></path></g><g transform="translate(3412.5113446873793 1365.6574492461752) rotate(0 84.375 43.199999999999996)"><text x="84.375" y="0" font-family="Cascadia, Segoe UI Emoji" font-size="36px" fill="#1e1e1e" text-anchor="middle" style="white-space: pre;" direction="ltr" dominant-baseline="text-before-edge">DATA DA </text><text x="84.375" y="43.199999999999996" font-family="Cascadia, Segoe UI Emoji" font-size="36px" fill="#1e1e1e" text-anchor="middle" style="white-space: pre;" direction="ltr" dominant-baseline="text-before-edge">COMPRA</text></g><g stroke-linecap="round" transform="translate(3263.048443576916 1612.5325845784432) rotate(0 177.76756023758617 48.75910223659508)"><path d="M152.05 0.07 C169.72 -1.37, 192.38 0.58, 211.36 1.5 C230.33 2.41, 249.11 2.91, 265.89 5.56 C282.67 8.22, 299.21 13.17, 312.02 17.43 C324.82 21.68, 335.47 26.38, 342.71 31.11 C349.95 35.83, 354.42 40.78, 355.45 45.78 C356.48 50.77, 354.07 56.13, 348.9 61.08 C343.73 66.02, 335.19 71.04, 324.44 75.44 C313.7 79.84, 299.96 84, 284.41 87.46 C268.87 90.92, 249.75 94.36, 231.18 96.19 C212.61 98.03, 192.07 98.65, 172.99 98.48 C153.92 98.31, 134.64 97.19, 116.73 95.15 C98.83 93.12, 80.42 89.59, 65.56 86.25 C50.71 82.91, 37.92 79.58, 27.6 75.12 C17.29 70.65, 8.24 64.75, 3.67 59.47 C-0.9 54.19, -2.07 48.6, 0.19 43.43 C2.44 38.27, 8.95 33.15, 17.23 28.49 C25.5 23.83, 36.62 19.3, 49.85 15.47 C63.09 11.64, 76.64 8.15, 96.63 5.51 C116.62 2.87, 155.18 0.54, 169.78 -0.35 C184.38 -1.24, 184.13 -0.57, 184.24 0.16 M94.02 4.89 C109.24 2.22, 131.83 2.74, 150.78 1.83 C169.74 0.92, 188.83 -1.16, 207.74 -0.56 C226.65 0.05, 247.55 2.91, 264.25 5.49 C280.96 8.06, 295.14 10.83, 307.97 14.9 C320.8 18.97, 333.42 24.78, 341.24 29.88 C349.06 34.99, 353.21 40.35, 354.87 45.55 C356.53 50.74, 355.93 56.25, 351.23 61.05 C346.52 65.85, 337.67 69.97, 326.65 74.35 C315.63 78.73, 300.36 83.97, 285.11 87.34 C269.86 90.72, 253.32 92.91, 235.17 94.61 C217.03 96.3, 195.58 97.31, 176.27 97.53 C156.95 97.74, 137.55 97.66, 119.29 95.91 C101.03 94.15, 82.07 90.49, 66.69 87.01 C51.31 83.54, 37.46 79.37, 27.01 75.05 C16.57 70.74, 8.61 66.37, 4.03 61.11 C-0.55 55.86, -2.26 48.92, -0.48 43.52 C1.3 38.11, 6.72 33.2, 14.73 28.69 C22.73 24.18, 34.25 20.42, 47.53 16.46 C60.81 12.5, 86.12 6.71, 94.38 4.92 C102.64 3.13, 95.73 4.79, 97.08 5.72" stroke="#1e1e1e" stroke-width="2" fill="none"></path></g><g transform="translate(3335.1466064955166 1639.7137949789737) rotate(0 105.46875 21.60000000000001)"><text x="105.46875" y="0" font-family="Cascadia, Segoe UI Emoji" font-size="36px" fill="#1e1e1e" text-anchor="middle" style="white-space: pre;" direction="ltr" dominant-baseline="text-before-edge">QUANTIDADE</text></g><g stroke-linecap="round" transform="translate(2791.71045528983 1781.1578131466679) rotate(0 95.48657521333189 58.91724853588573)"><path d="M77.7 2.05 C89.53 -0.28, 103.68 -0.55, 116.04 1.12 C128.4 2.8, 141.44 7.14, 151.84 12.09 C162.23 17.04, 171.95 23.84, 178.41 30.82 C184.86 37.81, 189.17 46.18, 190.55 54 C191.93 61.82, 190.86 70.16, 186.69 77.76 C182.51 85.35, 174.42 93.67, 165.51 99.56 C156.6 105.46, 145.27 110.03, 133.24 113.12 C121.21 116.21, 106.39 118.16, 93.32 118.11 C80.26 118.06, 66.45 116.27, 54.84 112.82 C43.22 109.37, 32.02 103.56, 23.64 97.41 C15.27 91.26, 8.38 83.33, 4.58 75.92 C0.79 68.51, -0.5 60.74, 0.88 52.97 C2.26 45.2, 6.31 36.43, 12.89 29.31 C19.46 22.18, 28.64 15.05, 40.33 10.21 C52.03 5.36, 74.52 1.75, 83.06 0.25 C91.6 -1.25, 91.15 0.15, 91.58 1.2 M80.65 1.49 C92.22 -0.9, 106.24 -0.55, 118.81 1.46 C131.38 3.46, 145.6 8.22, 156.06 13.51 C166.52 18.79, 175.99 26.15, 181.55 33.15 C187.12 40.15, 188.97 47.55, 189.45 55.5 C189.93 63.44, 188.64 73.27, 184.43 80.82 C180.22 88.38, 173.26 95.4, 164.2 100.82 C155.14 106.23, 142.52 110.54, 130.08 113.3 C117.64 116.06, 102.73 117.45, 89.56 117.37 C76.4 117.28, 62.67 116.58, 51.09 112.8 C39.51 109.03, 28.18 101.29, 20.09 94.72 C12 88.15, 5.68 80.79, 2.57 73.38 C-0.54 65.96, -0.58 57.74, 1.43 50.23 C3.44 42.72, 7.47 35.18, 14.64 28.31 C21.8 21.44, 33.3 13.83, 44.43 9.01 C55.56 4.2, 75.27 0.37, 81.44 -0.59 C87.6 -1.56, 81.28 1.9, 81.42 3.21" stroke="#1e1e1e" stroke-width="2" fill="none"></path></g><g transform="translate(2834.4434506575353 1818.3142757139756) rotate(0 52.734375 21.599999999999994)"><text x="52.734375" y="0" font-family="Cascadia, Segoe UI Emoji" font-size="36px" fill="#1e1e1e" text-anchor="middle" style="white-space: pre;" direction="ltr" dominant-baseline="text-before-edge">PRECO</text></g><g stroke-linecap="round"><g transform="translate(2937.987761999615 1336.2310052377375) rotate(0 -9.142331669361624 65.01213631546011)"><path d="M0 0 C-6.47 31.65, -8.95 59.62, -18.28 130.02 M0 0 C-4.53 35.82, -10.31 69.37, -18.28 130.02" stroke="#1e1e1e" stroke-width="2" fill="none"></path></g></g><mask></mask><g stroke-linecap="round"><g transform="translate(3316.7946489914257 1399.545313748092) rotate(0 -90.86942439278596 40.465684469786325)"><path d="M0 0 C-40.99 16.56, -78.77 35.04, -181.74 80.93 M0 0 C-66.87 29.43, -134.59 57.94, -181.74 80.93" stroke="#1e1e1e" stroke-width="2" fill="none"></path></g></g><mask></mask><g stroke-linecap="round"><g transform="translate(3348.9839608632974 1611.1453373357913) rotate(0 -88.67941698999869 -33.844073796262194)"><path d="M0 0 C-38.79 -11.16, -74.5 -27.48, -177.36 -67.69 M0 0 C-67.53 -27.08, -134.52 -51.45, -177.36 -67.69" stroke="#1e1e1e" stroke-width="2" fill="none"></path></g></g><mask></mask><g stroke-linecap="round"><g transform="translate(2889.7617204552016 1770.7603472734663) rotate(0 -8.349254390392161 -65.90829115843383)"><path d="M0 0 C-3.88 -50.87, -13.97 -104.14, -16.7 -131.82 M0 0 C-5.86 -40.14, -10.27 -82.54, -16.7 -131.82" stroke="#1e1e1e" stroke-width="2" fill="none"></path></g></g><mask></mask><g stroke-linecap="round"><g transform="translate(132.3077541355358 1976.1942220930482) rotate(0 101.58146299290644 0)"><path d="M0 0 C55.3 0.84, 112.11 3, 203.16 0 M0 0 C76.41 1.35, 153.25 0.97, 203.16 0" stroke="#1e1e1e" stroke-width="2" fill="none"></path></g></g><mask></mask><g stroke-linecap="round" transform="translate(1873.414029833953 2685.232833783535) rotate(0 87.36005817389957 45.71165834680801)"><path d="M96.73 -0.17 C108.87 -0.26, 122.57 2.83, 133.09 6.32 C143.62 9.8, 152.94 15.06, 159.88 20.76 C166.82 26.45, 172.92 33.74, 174.73 40.47 C176.55 47.2, 174.81 54.94, 170.77 61.12 C166.74 67.31, 159.31 73.12, 150.54 77.6 C141.77 82.07, 129.93 85.84, 118.15 87.97 C106.37 90.09, 92.69 90.93, 79.85 90.34 C67 89.75, 52 87.84, 41.09 84.42 C30.18 81, 21.2 75.4, 14.38 69.81 C7.55 64.22, 1.69 57.44, 0.12 50.86 C-1.46 44.28, 0.71 36.52, 4.92 30.33 C9.14 24.15, 16.61 18.34, 25.39 13.75 C34.17 9.17, 44.79 5.06, 57.59 2.8 C70.4 0.55, 93.82 0.19, 102.2 0.2 C110.57 0.21, 108.28 1.91, 107.83 2.86 M118.3 2.55 C129.78 3.85, 140.35 7.71, 149.07 12.54 C157.79 17.37, 166.23 25.23, 170.59 31.54 C174.95 37.85, 176.94 43.96, 175.21 50.41 C173.48 56.85, 167.05 64.35, 160.21 70.2 C153.38 76.04, 144.68 82.16, 134.19 85.47 C123.7 88.79, 109.93 89.79, 97.28 90.07 C84.62 90.35, 70.15 89.41, 58.25 87.15 C46.34 84.89, 34.81 80.88, 25.85 76.52 C16.9 72.16, 8.69 67.24, 4.51 60.98 C0.32 54.72, -0.78 45.4, 0.76 38.96 C2.3 32.52, 6.74 27.56, 13.73 22.33 C20.72 17.11, 31.84 11.38, 42.69 7.62 C53.54 3.87, 66.43 0.78, 78.83 -0.2 C91.22 -1.19, 110.95 0.98, 117.07 1.71 C123.19 2.44, 115.87 3.46, 115.54 4.16" stroke="#1e1e1e" stroke-width="2" fill="none"></path></g><g transform="translate(1939.907448468237 2709.5214685340325) rotate(0 21.09375 21.600000000000023)"><text x="21.09375" y="0" font-family="Cascadia, Segoe UI Emoji" font-size="36px" fill="#1e1e1e" text-anchor="middle" style="white-space: pre;" direction="ltr" dominant-baseline="text-before-edge">ID</text></g><g stroke-linecap="round"><g transform="translate(1920.14150281069 2683.201204523677) rotate(0 -69.07539483517644 -123.92938485134596)"><path d="M0 0 C-46.99 -88.82, -96.23 -173.39, -138.15 -247.86 M0 0 C-35.44 -61.51, -70.27 -122.3, -138.15 -247.86" stroke="#1e1e1e" stroke-width="2" fill="none"></path></g></g><mask></mask><g stroke-linecap="round"><g transform="translate(1918.109873550832 2750.2449700989955) rotate(0 39.616770567233516 0)"><path d="M0 0 C29.08 2.22, 56.48 0.12, 79.23 0 M0 0 C25.9 0.57, 53.68 0.6, 79.23 0" stroke="#1e1e1e" stroke-width="2" fill="none"></path></g></g><mask></mask><g stroke-linecap="round"><g transform="translate(1881.5405468733857 1413.4329171123463) rotate(0 38.600955937304434 1.0158146299290536)"><path d="M0 0 C19.43 -0.11, 38.3 -1.48, 77.2 2.03 M0 0 C25.51 0.31, 48.86 1.06, 77.2 2.03" stroke="#1e1e1e" stroke-width="2" fill="none"></path></g></g><mask></mask><g stroke-linecap="round"><g transform="translate(2062.355551000759 184.29721489817757) rotate(0 41.648399827091566 1.015814629929082)"><path d="M0 0 C16.98 2.58, 36.73 1.86, 83.3 2.03 M0 0 C16.53 0.93, 32.75 0.61, 83.3 2.03" stroke="#1e1e1e" stroke-width="2" fill="none"></path></g></g><mask></mask><g stroke-linecap="round"><g transform="translate(2891.260289022876 1291.535161520858) rotate(0 41.64839982709168 0)"><path d="M0 0 C24.1 -0.29, 47.71 -0.72, 83.3 0 M0 0 C18.45 1.12, 37.98 -0.15, 83.3 0" stroke="#1e1e1e" stroke-width="2" fill="none"></path></g></g><mask></mask><g stroke-linecap="round"><g transform="translate(215.1496573635784 649.8790305158392) rotate(0 44.60332463608705 0)"><path d="M0 0 C25.57 1.43, 53.95 0.38, 89.21 0 M0 0 C34.3 0.66, 67.3 0.7, 89.21 0" stroke="#1e1e1e" stroke-width="2" fill="none"></path></g></g><mask></mask></svg>