<?xml version="1.0" encoding="utf-8"?>
<!-- Svg Vector Icons : http://www.onlinewebfonts.com/icon -->
<!DOCTYPE svg PUBLIC "-//W3C//DTD SVG 1.1//EN" "http://www.w3.org/Graphics/SVG/1.1/DTD/svg11.dtd">
<svg version="1.1" xmlns="http://www.w3.org/2000/svg" xmlns:xlink="http://www.w3.org/1999/xlink" x="0px" y="0px" viewBox="0 0 256 256" enable-background="new 0 0 256 256" xml:space="preserve">
<metadata> Svg Vector Icons : http://www.onlinewebfonts.com/icon </metadata>
<g><g><g><path fill="#000000" d="M114.8,2.1c-6.6,1.4-10.8,3-16.6,6c-16,8.5-26.9,23-30.5,40.1c-0.8,3.8-1.1,7.7-1.1,14.6v9.3l-11.3,0.2l-11.2,0.2l-4,2c-5.6,2.8-7.3,5.5-8.5,13.2c-0.5,3.1-5.7,39.1-11.6,80c-9.9,68.7-10.6,74.6-9.9,76.8c1,3.4,4.2,6.7,8.1,8.7l3.3,1.6h106.3h106.3l3.3-1.6c3.9-2,7.1-5.3,8.1-8.6c0.8-2.8,1.9,5.6-14.6-109.4c-8.5-59.1-7.8-56.2-13.2-59.6c-4.6-2.9-7.4-3.4-18.5-3.4h-10L189,61.2c-0.4-14.7-1.9-20.6-8.3-31.4c-2.7-4.6-9.9-12.6-14.9-16.4c-7-5.4-16.9-9.8-26.2-11.5C133.2,0.6,121.1,0.7,114.8,2.1z M141.8,8.4c16,4.2,28.7,14.5,36,28.9c3.8,7.6,4.5,11.3,4.8,23.8l0.3,11.2h-55h-55l0.3-11.2c0.3-12.5,1-16.2,4.8-23.8c7.9-15.7,22.2-26.4,39.9-29.8C123.8,6.5,135.9,6.9,141.8,8.4z M66.6,92.6V107l-1.9,0.7c-4.1,1.5-7.9,6.9-8,11.1c0,7.4,5.6,12.9,13.1,12.9c7.4,0,13.1-5.6,13.1-12.9c-0.1-4.2-3.9-9.7-8-11.1L73,107V92.6V78.2h54.9h54.9l-0.1,15.5v15.6l-3,1.5c-1.9,1-3.6,2.4-4.8,4c-1.6,2.3-1.7,2.9-1.7,7c0,3.9,0.2,4.8,1.6,6.9c0.9,1.3,2.8,3.1,4.4,4c5,3,12.4,1.9,16.2-2.3c5.1-5.5,4.3-14.2-1.6-18.5c-1.3-0.9-2.9-1.9-3.5-2c-1-0.3-1.1-1.2-1.1-16V78.2h10.3c9.6,0,10.5,0.1,13.3,1.4c1.6,0.8,3.4,2.1,4,3c0.8,1.2,3.8,20.7,12.2,79.4c6.2,42.9,11.3,78.8,11.3,79.9c0,2.5-3.4,6-6.7,7c-3.3,0.9-208.1,0.9-211.4,0c-3.1-0.9-6.7-4.5-6.7-6.8c0-3.1,22-155.3,22.8-157.7c1.6-4.9,5.2-6.1,18.3-6.2h10L66.6,92.6L66.6,92.6z M73.6,113.4c3.6,2.1,4.6,7,2,10c-4.2,4.9-12.1,2.9-12.9-3.3C62,114.5,68.6,110.4,73.6,113.4z M190.1,116.2c0.8,0.5,1.9,1.9,2.4,3.1c0.8,1.9,0.8,2.4,0.1,4.5c-2.6,7.4-14.1,5.9-14.1-2C178.5,116.1,185.1,113,190.1,116.2z"/></g></g></g>
</svg>