<?xml version="1.0" encoding="utf-8"?>
<!-- Svg Vector Icons : http://www.onlinewebfonts.com/icon -->
<!DOCTYPE svg PUBLIC "-//W3C//DTD SVG 1.1//EN" "http://www.w3.org/Graphics/SVG/1.1/DTD/svg11.dtd">
<svg version="1.1" xmlns="http://www.w3.org/2000/svg" xmlns:xlink="http://www.w3.org/1999/xlink" x="0px" y="0px" viewBox="0 0 256 256" enable-background="new 0 0 256 256" xml:space="preserve">
<metadata> Svg Vector Icons : http://www.onlinewebfonts.com/icon </metadata>
<g><g><path fill="#000000" d="M127.7,249.2c-28.6,0-57.2-0.1-114.2-0.1H10v-3.5c0-13.6,3.1-26.7,9.4-39.1c6-11.9,14.5-22.6,25.4-31.8c16.4-13.8,36.8-23.1,58.9-27c-28-10-48.2-36.9-48.2-68.3c0-40,32.5-72.6,72.5-72.6c40,0,72.5,32.5,72.5,72.5c0,31.5-20.1,58.3-48.2,68.3c22.1,3.9,42.4,13.2,58.8,27c10.9,9.2,19.4,19.9,25.4,31.8c6.2,12.4,9.4,25.6,9.4,39.1v3.5h-3.5C185.1,249.1,156.3,249.2,127.7,249.2z M17,242.1c54.6,0.1,82.6,0.1,110.6,0.1c28,0,56.2-0.1,111.3-0.1c-2.2-49.7-51.1-89.6-111-89.6S19.2,192.4,17,242.1z M128.1,13.8c-36.2,0-65.6,29.4-65.6,65.6c0,36.2,29.4,65.6,65.6,65.6c36.2,0,65.6-29.4,65.6-65.6C193.7,43.2,164.3,13.8,128.1,13.8z"/></g></g>
</svg>